<svg width="20" height="24" viewBox="0 0 20 24" fill="none" xmlns="http://www.w3.org/2000/svg">
<path d="M1 0.75H15.25V4V4.75H16H19.25V23C19.25 23.1381 19.1381 23.25 19 23.25H1C0.861929 23.25 0.75 23.1381 0.75 23V1C0.75 0.861929 0.861929 0.75 1 0.75ZM16.75 1.81066L18.1893 3.25H16.75V1.81066Z" stroke="#DA251C" stroke-width="1.5"/>
<path d="M4.5 9.5C4.5 9.22386 4.72386 9 5 9H15C15.2761 9 15.5 9.22386 15.5 9.5C15.5 9.77614 15.2761 10 15 10H5C4.72386 10 4.5 9.77614 4.5 9.5ZM4.5 13.5C4.5 13.2239 4.72386 13 5 13H15C15.2761 13 15.5 13.2239 15.5 13.5C15.5 13.7761 15.2761 14 15 14H5C4.72386 14 4.5 13.7761 4.5 13.5ZM4.5 17.5C4.5 17.2239 4.72386 17 5 17H10C10.2761 17 10.5 17.2239 10.5 17.5C10.5 17.7761 10.2761 18 10 18H5C4.72386 18 4.5 17.7761 4.5 17.5Z" stroke="#DA251C"/>
</svg>
