<svg width="96" height="96" viewBox="0 0 96 96" fill="none" xmlns="http://www.w3.org/2000/svg">
<path d="M6.39996 -0.000976562H30.4731V37.0805H6.39996V-0.000976562Z" fill="#DA251C"/>
<path d="M6.39996 37.0805H30.4731V53.1492H6.39996V37.0805Z" fill="#1F1A17"/>
<path d="M65.5269 37.0805H89.6V53.1492H65.5269V37.0805Z" fill="#1F1A17"/>
<path d="M35.9634 37.0805H60.0365V70.8659H35.9634V37.0805Z" fill="#1F1A17"/>
<path d="M35.9634 -0.000976562H60.0365V37.0805H35.9634V-0.000976562Z" fill="#DA251C"/>
<path d="M65.5269 -0.000976562H89.6V37.0805H65.5269V-0.000976562Z" fill="#DA251C"/>
<mask id="path-2-inside-1_65_3700" fill="white">
<path d="M89.6 57.6816C89.6 67.8441 85.2171 77.5903 77.4156 84.7762C69.6141 91.9622 59.033 95.9992 48 95.9992C36.967 95.9992 26.3858 91.9622 18.5843 84.7762C10.7828 77.5903 6.39997 67.8441 6.39996 57.6816L16.384 57.6816C16.384 65.4051 19.7149 72.8122 25.6441 78.2735C31.5732 83.7348 39.6149 86.803 48 86.803C56.3851 86.803 64.4267 83.7348 70.3559 78.2735C76.285 72.8122 79.616 65.4051 79.616 57.6816L89.6 57.6816Z"/>
</mask>
<path d="M89.6 57.6816L137.6 57.6816V9.68164H89.6V57.6816ZM6.39996 57.6816L6.39996 9.68165L-41.6 9.68165L-41.6 57.6817L6.39996 57.6816ZM16.384 57.6816L64.384 57.6816L64.384 9.68164L16.384 9.68164L16.384 57.6816ZM48 86.803L48 134.803L48 86.803ZM79.616 57.6816V9.68164H31.616V57.6816H79.616ZM41.6 57.6816C41.6 53.7812 43.3178 50.9244 44.896 49.4708L109.935 120.082C127.116 104.256 137.6 81.907 137.6 57.6816L41.6 57.6816ZM44.896 49.4708C45.651 48.7754 46.3355 48.4164 46.8092 48.2356C47.2832 48.0548 47.6791 47.9992 48 47.9992L48 143.999C70.5484 143.999 92.8865 135.785 109.935 120.082L44.896 49.4708ZM48 47.9992C48.3209 47.9992 48.7167 48.0548 49.1907 48.2356C49.6644 48.4164 50.3489 48.7754 51.104 49.4708L-13.9353 120.082C3.1134 135.785 25.4516 143.999 48 143.999L48 47.9992ZM51.104 49.4708C52.6821 50.9244 54.4 53.7812 54.4 57.6816L-41.6 57.6817C-41.6 81.907 -31.1165 104.256 -13.9353 120.082L51.104 49.4708ZM6.39997 105.682L16.384 105.682L16.384 9.68164L6.39996 9.68165L6.39997 105.682ZM-31.616 57.6817C-31.616 79.468 -22.1844 99.4781 -6.87555 113.579L58.1637 42.9681C61.6142 46.1464 64.384 51.3422 64.384 57.6816L-31.616 57.6817ZM-6.87555 113.579C8.30079 127.558 28.0995 134.803 48 134.803L48 38.803C51.1303 38.803 54.8457 39.9119 58.1637 42.9681L-6.87555 113.579ZM48 134.803C67.9004 134.803 87.6992 127.558 102.875 113.579L37.8362 42.9681C41.1543 39.9119 44.8697 38.803 48 38.803L48 134.803ZM102.875 113.579C118.184 99.4781 127.616 79.468 127.616 57.6816H31.616C31.616 51.3422 34.3857 46.1464 37.8362 42.9681L102.875 113.579ZM79.616 105.682H89.6V9.68164H79.616V105.682Z" fill="#1F1A17" mask="url(#path-2-inside-1_65_3700)"/>
</svg>
