<svg width="48" height="64" viewBox="0 0 48 64" fill="none" xmlns="http://www.w3.org/2000/svg">
<path d="M0.360107 5.17818V0.0872725H1.32491L3.47051 3.68H2.95931L5.06891 0.0872725H6.03371L6.04091 5.17818H4.94651L4.93931 1.78182H5.14811L3.45611 4.64H2.93771L1.20971 1.78182H1.45451V5.17818H0.360107Z" fill="#1F1A17"/>
<path d="M9.10012 5.23636C8.65852 5.23636 8.26972 5.14909 7.93372 4.97455C7.60252 4.8 7.34572 4.56242 7.16332 4.26182C6.98092 3.95636 6.88972 3.6097 6.88972 3.22182C6.88972 2.82909 6.97852 2.48242 7.15612 2.18182C7.33852 1.87636 7.58572 1.63879 7.89772 1.46909C8.20972 1.29455 8.56252 1.20727 8.95612 1.20727C9.33532 1.20727 9.67612 1.2897 9.97852 1.45455C10.2857 1.61455 10.5281 1.84727 10.7057 2.15273C10.8833 2.45333 10.9721 2.81455 10.9721 3.23636C10.9721 3.28 10.9697 3.33091 10.9649 3.38909C10.9601 3.44242 10.9553 3.49333 10.9505 3.54182H7.80412V2.88H10.3601L9.92812 3.07636C9.92812 2.87273 9.88732 2.69576 9.80572 2.54545C9.72412 2.39515 9.61132 2.27879 9.46732 2.19636C9.32332 2.10909 9.15532 2.06545 8.96332 2.06545C8.77132 2.06545 8.60092 2.10909 8.45212 2.19636C8.30812 2.27879 8.19532 2.39758 8.11372 2.55273C8.03212 2.70303 7.99132 2.88242 7.99132 3.09091V3.26545C7.99132 3.47879 8.03692 3.66788 8.12812 3.83273C8.22412 3.99273 8.35612 4.11636 8.52412 4.20364C8.69692 4.28606 8.89852 4.32727 9.12892 4.32727C9.33532 4.32727 9.51532 4.29576 9.66892 4.23273C9.82732 4.1697 9.97132 4.07515 10.1009 3.94909L10.6985 4.60364C10.5209 4.80727 10.2977 4.96485 10.0289 5.07636C9.76012 5.18303 9.45052 5.23636 9.10012 5.23636Z" fill="#1F1A17"/>
<path d="M14.4619 4.66909V2.19636H13.1947L13.1731 2.69818C13.1635 2.90667 13.1515 3.10545 13.1371 3.29455C13.1227 3.48364 13.0939 3.65576 13.0507 3.81091C13.0123 3.96121 12.9547 4.0897 12.8779 4.19636C12.8011 4.29818 12.6979 4.36848 12.5683 4.40727L11.4595 4.24727C11.5987 4.24727 11.7115 4.20606 11.7979 4.12364C11.8843 4.03636 11.9515 3.91758 11.9995 3.76727C12.0475 3.61212 12.0835 3.43758 12.1075 3.24364C12.1315 3.04485 12.1483 2.83636 12.1579 2.61818L12.2083 1.26545H15.5851V4.66909H14.4619ZM11.3299 6.02182V4.24727H16.1395V6.02182H15.0955V5.17818H12.3739V6.02182H11.3299Z" fill="#1F1A17"/>
<path d="M17.8058 3.05455V2.15273H20.297V3.05455H17.8058ZM18.4682 0C18.8474 0 19.1954 0.0654544 19.5122 0.196363C19.829 0.322424 20.105 0.504242 20.3402 0.741818C20.5754 0.979394 20.7578 1.25818 20.8874 1.57818C21.017 1.89818 21.0818 2.2497 21.0818 2.63273C21.0818 3.01576 21.017 3.36727 20.8874 3.68727C20.7578 4.00727 20.5754 4.28606 20.3402 4.52364C20.105 4.76121 19.829 4.94545 19.5122 5.07636C19.1954 5.20242 18.8474 5.26545 18.4682 5.26545C18.0218 5.26545 17.6186 5.18788 17.2586 5.03273C16.9034 4.87758 16.6058 4.65212 16.3658 4.35636L17.1074 3.65818C17.285 3.86182 17.4818 4.01455 17.6978 4.11636C17.9138 4.21333 18.1514 4.26182 18.4106 4.26182C18.6266 4.26182 18.8258 4.22303 19.0082 4.14545C19.1954 4.06303 19.3538 3.95152 19.4834 3.81091C19.6178 3.66545 19.7186 3.49333 19.7858 3.29455C19.8578 3.09576 19.8938 2.87515 19.8938 2.63273C19.8938 2.3903 19.8578 2.1697 19.7858 1.97091C19.7186 1.77212 19.6178 1.60242 19.4834 1.46182C19.3538 1.31636 19.1954 1.20485 19.0082 1.12727C18.8258 1.04485 18.6266 1.00364 18.4106 1.00364C18.1514 1.00364 17.9138 1.05455 17.6978 1.15636C17.4818 1.25333 17.285 1.40364 17.1074 1.60727L16.3658 0.909091C16.6058 0.613333 16.9034 0.387879 17.2586 0.232727C17.6186 0.0775758 18.0218 0 18.4682 0Z" fill="#1F1A17"/>
<path d="M24.6521 5.17818L23.3561 3.32364L24.2705 2.77818L25.9769 5.17818H24.6521ZM21.9089 5.17818V1.26545H23.0321V5.17818H21.9089ZM22.7009 3.69455V2.78545H24.0545V3.69455H22.7009ZM24.3785 3.35273L23.3273 3.23636L24.6881 1.26545H25.8833L24.3785 3.35273Z" fill="#1F1A17"/>
<path d="M28.2233 5.23636C27.8105 5.23636 27.4433 5.14909 27.1217 4.97455C26.8049 4.8 26.5529 4.56242 26.3657 4.26182C26.1833 3.95636 26.0921 3.6097 26.0921 3.22182C26.0921 2.82909 26.1833 2.48242 26.3657 2.18182C26.5529 1.87636 26.8049 1.63879 27.1217 1.46909C27.4433 1.29455 27.8105 1.20727 28.2233 1.20727C28.6313 1.20727 28.9961 1.29455 29.3177 1.46909C29.6393 1.63879 29.8913 1.87394 30.0737 2.17455C30.2561 2.47515 30.3473 2.82424 30.3473 3.22182C30.3473 3.6097 30.2561 3.95636 30.0737 4.26182C29.8913 4.56242 29.6393 4.8 29.3177 4.97455C28.9961 5.14909 28.6313 5.23636 28.2233 5.23636ZM28.2233 4.30545C28.4105 4.30545 28.5785 4.26182 28.7273 4.17455C28.8761 4.08727 28.9937 3.96364 29.0801 3.80364C29.1665 3.63879 29.2097 3.44485 29.2097 3.22182C29.2097 2.99394 29.1665 2.8 29.0801 2.64C28.9937 2.48 28.8761 2.35636 28.7273 2.26909C28.5785 2.18182 28.4105 2.13818 28.2233 2.13818C28.0361 2.13818 27.8681 2.18182 27.7193 2.26909C27.5705 2.35636 27.4505 2.48 27.3593 2.64C27.2729 2.8 27.2297 2.99394 27.2297 3.22182C27.2297 3.44485 27.2729 3.63879 27.3593 3.80364C27.4505 3.96364 27.5705 4.08727 27.7193 4.17455C27.8681 4.26182 28.0361 4.30545 28.2233 4.30545Z" fill="#1F1A17"/>
<path d="M31.8223 5.17818V0.778182L32.0887 1.04727H30.2167V0.0872725H34.5871V1.04727H32.7151L32.9743 0.778182V5.17818H31.8223Z" fill="#1F1A17"/>
<path d="M36.7329 5.23636C36.2913 5.23636 35.9025 5.14909 35.5665 4.97455C35.2353 4.8 34.9785 4.56242 34.7961 4.26182C34.6137 3.95636 34.5225 3.6097 34.5225 3.22182C34.5225 2.82909 34.6113 2.48242 34.7889 2.18182C34.9713 1.87636 35.2185 1.63879 35.5305 1.46909C35.8425 1.29455 36.1953 1.20727 36.5889 1.20727C36.9681 1.20727 37.3089 1.2897 37.6113 1.45455C37.9185 1.61455 38.1609 1.84727 38.3385 2.15273C38.5161 2.45333 38.6049 2.81455 38.6049 3.23636C38.6049 3.28 38.6025 3.33091 38.5977 3.38909C38.5929 3.44242 38.5881 3.49333 38.5833 3.54182H35.4369V2.88H37.9929L37.5609 3.07636C37.5609 2.87273 37.5201 2.69576 37.4385 2.54545C37.3569 2.39515 37.2441 2.27879 37.1001 2.19636C36.9561 2.10909 36.7881 2.06545 36.5961 2.06545C36.4041 2.06545 36.2337 2.10909 36.0849 2.19636C35.9409 2.27879 35.8281 2.39758 35.7465 2.55273C35.6649 2.70303 35.6241 2.88242 35.6241 3.09091V3.26545C35.6241 3.47879 35.6697 3.66788 35.7609 3.83273C35.8569 3.99273 35.9889 4.11636 36.1569 4.20364C36.3297 4.28606 36.5313 4.32727 36.7617 4.32727C36.9681 4.32727 37.1481 4.29576 37.3017 4.23273C37.4601 4.1697 37.6041 4.07515 37.7337 3.94909L38.3313 4.60364C38.1537 4.80727 37.9305 4.96485 37.6617 5.07636C37.3929 5.18303 37.0833 5.23636 36.7329 5.23636Z" fill="#1F1A17"/>
<path d="M41.3091 5.23636C40.8915 5.23636 40.5195 5.15152 40.1931 4.98182C39.8667 4.80727 39.6099 4.56727 39.4227 4.26182C39.2403 3.95636 39.1491 3.6097 39.1491 3.22182C39.1491 2.82909 39.2403 2.48242 39.4227 2.18182C39.6099 1.87636 39.8667 1.63879 40.1931 1.46909C40.5195 1.29455 40.8915 1.20727 41.3091 1.20727C41.7171 1.20727 42.0723 1.29455 42.3747 1.46909C42.6771 1.63879 42.9003 1.88364 43.0443 2.20364L42.1731 2.67636C42.0723 2.49212 41.9451 2.35636 41.7915 2.26909C41.6427 2.18182 41.4795 2.13818 41.3019 2.13818C41.1099 2.13818 40.9371 2.18182 40.7835 2.26909C40.6299 2.35636 40.5075 2.48 40.4163 2.64C40.3299 2.8 40.2867 2.99394 40.2867 3.22182C40.2867 3.4497 40.3299 3.64364 40.4163 3.80364C40.5075 3.96364 40.6299 4.08727 40.7835 4.17455C40.9371 4.26182 41.1099 4.30545 41.3019 4.30545C41.4795 4.30545 41.6427 4.26424 41.7915 4.18182C41.9451 4.09455 42.0723 3.95636 42.1731 3.76727L43.0443 4.24727C42.9003 4.56242 42.6771 4.80727 42.3747 4.98182C42.0723 5.15152 41.7171 5.23636 41.3091 5.23636Z" fill="#1F1A17"/>
<path d="M44.5478 5.17818V1.93455L44.7998 2.19636H43.2374V1.26545H46.9742V2.19636H45.4118L45.6638 1.93455V5.17818H44.5478Z" fill="#1F1A17"/>
<path d="M0 6.90909H13.68V28.7273H0V6.90909Z" fill="#DA251C"/>
<path d="M0 28.7273H13.68V38.1818H0V28.7273Z" fill="#1F1A17"/>
<path d="M33.6 28.7273H47.28V38.1818H33.6V28.7273Z" fill="#1F1A17"/>
<path d="M16.8 28.7273H30.48V48.6061H16.8V28.7273Z" fill="#1F1A17"/>
<path d="M16.8 6.90909H30.48V28.7273H16.8V6.90909Z" fill="#DA251C"/>
<path d="M33.6 6.90909H47.28V28.7273H33.6V6.90909Z" fill="#DA251C"/>
<path d="M6.924 56.7905L10.7471 52.7818L6.924 56.7905Z" stroke="#1F1A17" stroke-width="48"/>
</svg>
