<svg width="330" height="82" viewBox="0 0 330 82" fill="none" xmlns="http://www.w3.org/2000/svg">
<path d="M0.338257 1.70833H19.4235V32.1461H0.338257V1.70833Z" fill="#DA251C"/>
<path d="M0.338257 32.1461H19.4235V45.3359H0.338257V32.1461Z" fill="#1F1A17"/>
<path d="M47.2143 32.1461H66.2995V45.3359H47.2143V32.1461Z" fill="#1F1A17"/>
<path d="M23.7763 32.1461H42.8615V59.8784H23.7763V32.1461Z" fill="#1F1A17"/>
<path d="M23.7763 1.70833H42.8615V32.1461H23.7763V1.70833Z" fill="#DA251C"/>
<path d="M47.2143 1.70833H66.2995V32.1461H47.2143V1.70833Z" fill="#DA251C"/>
<mask id="path-2-inside-1_136_9" fill="white">
<path d="M66.2995 49.056C66.2995 57.3977 62.8248 65.3978 56.6397 71.2963C50.4547 77.1947 42.0659 80.5085 33.3189 80.5085C24.5719 80.5085 16.1831 77.1947 9.99806 71.2963C3.813 65.3978 0.338258 57.3977 0.338257 49.0561L8.25361 49.056C8.25361 55.3957 10.8944 61.4758 15.5951 65.9586C20.2957 70.4414 26.6712 72.9599 33.3189 72.9599C39.9666 72.9599 46.3421 70.4414 51.0427 65.9586C55.7434 61.4758 58.3842 55.3957 58.3842 49.056L66.2995 49.056Z"/>
</mask>
<path d="M66.2995 49.056L114.3 49.056V1.05605H66.2995V49.056ZM0.338257 49.0561L0.33825 1.05605L-47.6618 1.05606L-47.6617 49.0561L0.338257 49.0561ZM8.25361 49.056L56.2536 49.056L56.2536 1.05604L8.2536 1.05605L8.25361 49.056ZM33.3189 72.9599L33.3189 120.96L33.3189 72.9599ZM58.3842 49.056V1.05605H10.3842V49.056H58.3842ZM18.2995 49.056C18.2995 43.9127 20.4631 39.4684 23.5129 36.5599L89.7665 106.033C105.187 91.3272 114.3 70.8828 114.3 49.056L18.2995 49.056ZM23.5129 36.5599C26.4854 33.7252 30.051 32.5085 33.3189 32.5085L33.3189 128.508C54.0809 128.508 74.4239 120.664 89.7665 106.033L23.5129 36.5599ZM33.3189 32.5085C36.5868 32.5085 40.1524 33.7252 43.1249 36.5599L-23.1287 106.033C-7.78614 120.664 12.5569 128.508 33.3189 128.508L33.3189 32.5085ZM43.1249 36.5599C46.1747 39.4684 48.3383 43.9127 48.3383 49.056L-47.6617 49.0561C-47.6617 70.8828 -38.5487 91.3272 -23.1287 106.033L43.1249 36.5599ZM0.338264 97.056H8.25362L8.2536 1.05605H0.33825L0.338264 97.056ZM-39.7464 49.0561C-39.7464 68.8808 -31.4673 87.4051 -17.5317 100.695L48.7219 31.2222C53.2561 35.5464 56.2536 41.9107 56.2536 49.056L-39.7464 49.0561ZM-17.5317 100.695C-3.67355 113.911 14.6562 120.96 33.3189 120.96L33.3189 24.9599C38.6861 24.9599 44.265 26.9719 48.7219 31.2222L-17.5317 100.695ZM33.3189 120.96C51.9816 120.96 70.3114 113.911 84.1695 100.695L17.9159 31.2222C22.3728 26.9719 27.9517 24.9599 33.3189 24.9599L33.3189 120.96ZM84.1695 100.695C98.1051 87.4051 106.384 68.8808 106.384 49.056H10.3842C10.3842 41.9107 13.3817 35.5464 17.9159 31.2222L84.1695 100.695ZM58.3842 97.056H66.2995V1.05605H58.3842V97.056Z" fill="#1F1A17" mask="url(#path-2-inside-1_136_9)"/>
<path d="M83.5509 61.5301V50.0501H91.8641V51.0833H84.7362V54.8389H88.4544C89.7966 54.8389 90.8141 55.1177 91.5069 55.6753C92.2105 56.2219 92.5623 57.031 92.5623 58.1025C92.5623 59.2067 92.1834 60.0541 91.4257 60.6445C90.6788 61.2349 89.6018 61.5301 88.1946 61.5301H83.5509ZM84.7362 60.5625H88.1784C89.2283 60.5625 90.0185 60.3602 90.5489 59.9557C91.0901 59.5402 91.3607 58.9389 91.3607 58.1517C91.3607 56.5882 90.3 55.8065 88.1784 55.8065H84.7362V60.5625Z" fill="#1F1A17"/>
<path d="M103.369 61.5301V52.9201H104.522V61.5301H103.369ZM98.6443 55.9541C99.7159 55.965 100.533 56.2055 101.096 56.6757C101.659 57.1458 101.94 57.8237 101.94 58.7093C101.94 59.6277 101.637 60.3329 101.031 60.8249C100.425 61.3169 99.5589 61.5574 98.4332 61.5465L95.056 61.5301V52.9201H96.2088V55.9213L98.6443 55.9541ZM98.352 60.6609C99.153 60.6718 99.7538 60.5133 100.154 60.1853C100.566 59.8463 100.771 59.3543 100.771 58.7093C100.771 58.0642 100.571 57.5941 100.171 57.2989C99.77 56.9927 99.1638 56.8342 98.352 56.8233L96.2088 56.7905V60.6281L98.352 60.6609Z" fill="#1F1A17"/>
<path d="M111.376 61.6121C110.532 61.6121 109.774 61.4262 109.103 61.0545C108.443 60.6718 107.923 60.1525 107.544 59.4965C107.166 58.8295 106.976 58.0697 106.976 57.2169C106.976 56.3531 107.166 55.5933 107.544 54.9373C107.923 54.2813 108.443 53.7674 109.103 53.3957C109.774 53.0239 110.532 52.8381 111.376 52.8381C112.102 52.8381 112.756 52.9802 113.341 53.2645C113.925 53.5487 114.386 53.9751 114.721 54.5437L113.861 55.1341C113.568 54.6967 113.206 54.3742 112.773 54.1665C112.34 53.9587 111.869 53.8549 111.36 53.8549C110.754 53.8549 110.207 53.997 109.72 54.2813C109.233 54.5546 108.849 54.9427 108.567 55.4457C108.286 55.9486 108.145 56.539 108.145 57.2169C108.145 57.8947 108.286 58.4851 108.567 58.9881C108.849 59.491 109.233 59.8846 109.72 60.1689C110.207 60.4422 110.754 60.5789 111.36 60.5789C111.869 60.5789 112.34 60.475 112.773 60.2673C113.206 60.0595 113.568 59.7425 113.861 59.3161L114.721 59.9065C114.386 60.4641 113.925 60.8905 113.341 61.1857C112.756 61.4699 112.102 61.6121 111.376 61.6121Z" fill="#1F1A17"/>
<path d="M118.418 61.5301V53.6253L118.711 53.9369H115.187V52.9201H122.802V53.9369H119.279L119.571 53.6253V61.5301H118.418Z" fill="#1F1A17"/>
<path d="M128.869 61.6121C128.133 61.6121 127.467 61.4426 126.872 61.1037C126.277 60.7538 125.8 60.2563 125.443 59.6113C125.097 58.9553 124.924 58.1571 124.924 57.2169C124.924 56.2766 125.097 55.4839 125.443 54.8389C125.79 54.1829 126.26 53.6854 126.856 53.3465C127.451 53.0075 128.122 52.8381 128.869 52.8381C129.681 52.8381 130.406 53.0239 131.045 53.3957C131.694 53.7565 132.203 54.2703 132.571 54.9373C132.939 55.5933 133.123 56.3531 133.123 57.2169C133.123 58.0915 132.939 58.8569 132.571 59.5129C132.203 60.1689 131.694 60.6827 131.045 61.0545C130.406 61.4262 129.681 61.6121 128.869 61.6121ZM124.469 64.7117V52.9201H125.573V55.5113L125.459 57.2333L125.622 58.9717V64.7117H124.469ZM128.788 60.5789C129.394 60.5789 129.935 60.4422 130.412 60.1689C130.888 59.8846 131.267 59.491 131.548 58.9881C131.83 58.4742 131.97 57.8838 131.97 57.2169C131.97 56.5499 131.83 55.965 131.548 55.4621C131.267 54.9591 130.888 54.5655 130.412 54.2813C129.935 53.997 129.394 53.8549 128.788 53.8549C128.182 53.8549 127.635 53.997 127.148 54.2813C126.672 54.5655 126.293 54.9591 126.011 55.4621C125.741 55.965 125.606 56.5499 125.606 57.2169C125.606 57.8838 125.741 58.4742 126.011 58.9881C126.293 59.491 126.672 59.8846 127.148 60.1689C127.635 60.4422 128.182 60.5789 128.788 60.5789Z" fill="#1F1A17"/>
<path d="M143.913 61.5301V52.9201H145.066V61.5301H143.913ZM139.188 55.9541C140.26 55.965 141.077 56.2055 141.64 56.6757C142.203 57.1458 142.484 57.8237 142.484 58.7093C142.484 59.6277 142.181 60.3329 141.575 60.8249C140.969 61.3169 140.103 61.5574 138.977 61.5465L135.6 61.5301V52.9201H136.753V55.9213L139.188 55.9541ZM138.896 60.6609C139.697 60.6718 140.298 60.5133 140.698 60.1853C141.11 59.8463 141.315 59.3543 141.315 58.7093C141.315 58.0642 141.115 57.5941 140.715 57.2989C140.314 56.9927 139.708 56.8342 138.896 56.8233L136.753 56.7905V60.6281L138.896 60.6609Z" fill="#1F1A17"/>
<path d="M148.348 61.5301V52.9201H149.501V59.7589L155.2 52.9201H156.223V61.5301H155.07V54.6749L149.387 61.5301H148.348ZM152.213 51.6737C151.498 51.6737 150.919 51.4933 150.475 51.1325C150.042 50.7607 149.815 50.2305 149.793 49.5417H150.621C150.632 49.979 150.784 50.3234 151.076 50.5749C151.368 50.8263 151.747 50.9521 152.213 50.9521C152.678 50.9521 153.057 50.8263 153.349 50.5749C153.652 50.3234 153.809 49.979 153.82 49.5417H154.648C154.637 50.2305 154.41 50.7607 153.966 51.1325C153.522 51.4933 152.938 51.6737 152.213 51.6737Z" fill="#1F1A17"/>
<path d="M162.38 61.5301L165.984 56.8069L165.968 57.3809L162.542 52.9201H163.841L166.65 56.6101L166.163 56.5937L168.972 52.9201H170.238L166.78 57.4301L166.796 56.8069L170.433 61.5301H169.118L166.147 57.5941L166.601 57.6597L163.679 61.5301H162.38Z" fill="#1F1A17"/>
<path d="M172.323 61.5301V52.9201H173.475V59.7589L179.174 52.9201H180.197V61.5301H179.045V54.6749L173.362 61.5301H172.323Z" fill="#1F1A17"/>
<path d="M183.501 61.5301V52.9201H184.67L188.535 59.5293H188.047L191.977 52.9201H193.048V61.5301H191.993V54.2485L192.204 54.3469L188.535 60.4805H188.015L184.313 54.2813L184.557 54.2321V61.5301H183.501Z" fill="#1F1A17"/>
<path d="M196.329 61.5301V52.9201H197.482V59.7589L203.181 52.9201H204.203V61.5301H203.051V54.6749L197.368 61.5301H196.329Z" fill="#1F1A17"/>
<path d="M212.898 57.8893C212.4 58.1079 211.897 58.2829 211.388 58.4141C210.89 58.5343 210.392 58.5945 209.894 58.5945C208.887 58.5945 208.092 58.3649 207.507 57.9057C206.923 57.4355 206.631 56.7139 206.631 55.7409V52.9201H207.767V55.6753C207.767 56.3313 207.978 56.8233 208.4 57.1513C208.822 57.4793 209.391 57.6433 210.105 57.6433C210.538 57.6433 210.993 57.5886 211.469 57.4793C211.945 57.359 212.427 57.1895 212.914 56.9709L212.898 57.8893ZM212.8 61.5301V52.9201H213.953V61.5301H212.8Z" fill="#1F1A17"/>
<path d="M220.88 61.6121C219.993 61.6121 219.213 61.4262 218.542 61.0545C217.871 60.6718 217.346 60.1525 216.967 59.4965C216.588 58.8295 216.399 58.0697 216.399 57.2169C216.399 56.3641 216.578 55.6097 216.935 54.9537C217.303 54.2977 217.801 53.7838 218.429 53.4121C219.067 53.0294 219.782 52.8381 220.572 52.8381C221.373 52.8381 222.082 53.0239 222.699 53.3957C223.327 53.7565 223.819 54.2703 224.176 54.9373C224.534 55.5933 224.712 56.3531 224.712 57.2169C224.712 57.2715 224.707 57.3317 224.696 57.3973C224.696 57.4519 224.696 57.5121 224.696 57.5777H217.276V56.7085H224.079L223.624 57.0529C223.624 56.4297 223.489 55.8775 223.218 55.3965C222.959 54.9045 222.601 54.5218 222.147 54.2485C221.692 53.9751 221.167 53.8385 220.572 53.8385C219.987 53.8385 219.462 53.9751 218.997 54.2485C218.531 54.5218 218.169 54.9045 217.909 55.3965C217.649 55.8885 217.519 56.4515 217.519 57.0857V57.2661C217.519 57.9221 217.66 58.5015 217.941 59.0045C218.234 59.4965 218.634 59.8846 219.143 60.1689C219.663 60.4422 220.252 60.5789 220.913 60.5789C221.432 60.5789 221.914 60.4859 222.358 60.3001C222.812 60.1142 223.202 59.8299 223.527 59.4473L224.176 60.2017C223.797 60.6609 223.321 61.0107 222.747 61.2513C222.185 61.4918 221.562 61.6121 220.88 61.6121Z" fill="#1F1A17"/>
<path d="M230.836 61.6121C229.992 61.6121 229.234 61.4262 228.563 61.0545C227.903 60.6718 227.383 60.1525 227.004 59.4965C226.625 58.8295 226.436 58.0697 226.436 57.2169C226.436 56.3531 226.625 55.5933 227.004 54.9373C227.383 54.2813 227.903 53.7674 228.563 53.3957C229.234 53.0239 229.992 52.8381 230.836 52.8381C231.561 52.8381 232.216 52.9802 232.801 53.2645C233.385 53.5487 233.845 53.9751 234.181 54.5437L233.32 55.1341C233.028 54.6967 232.665 54.3742 232.232 54.1665C231.799 53.9587 231.329 53.8549 230.82 53.8549C230.214 53.8549 229.667 53.997 229.18 54.2813C228.693 54.5546 228.309 54.9427 228.027 55.4457C227.746 55.9486 227.605 56.539 227.605 57.2169C227.605 57.8947 227.746 58.4851 228.027 58.9881C228.309 59.491 228.693 59.8846 229.18 60.1689C229.667 60.4422 230.214 60.5789 230.82 60.5789C231.329 60.5789 231.799 60.475 232.232 60.2673C232.665 60.0595 233.028 59.7425 233.32 59.3161L234.181 59.9065C233.845 60.4641 233.385 60.8905 232.801 61.1857C232.216 61.4699 231.561 61.6121 230.836 61.6121Z" fill="#1F1A17"/>
<path d="M242.664 61.5301L239.157 57.2661L240.115 56.6921L244.028 61.5301H242.664ZM236.413 61.5301V52.9201H237.566V61.5301H236.413ZM237.208 57.6925V56.6921H239.952V57.6925H237.208ZM240.212 57.3481L239.141 57.1841L242.534 52.9201H243.784L240.212 57.3481Z" fill="#1F1A17"/>
<path d="M245.847 61.5301V52.9201H247V59.7589L252.699 52.9201H253.722V61.5301H252.569V54.6749L246.886 61.5301H245.847Z" fill="#1F1A17"/>
<path d="M257.026 61.5301V52.9201H258.179V59.7589L263.878 52.9201H264.901V61.5301H263.748V54.6749L258.065 61.5301H257.026ZM260.89 51.6737C260.176 51.6737 259.597 51.4933 259.153 51.1325C258.72 50.7607 258.493 50.2305 258.471 49.5417H259.299C259.31 49.979 259.461 50.3234 259.754 50.5749C260.046 50.8263 260.425 50.9521 260.89 50.9521C261.356 50.9521 261.734 50.8263 262.027 50.5749C262.33 50.3234 262.487 49.979 262.498 49.5417H263.326C263.315 50.2305 263.087 50.7607 262.644 51.1325C262.2 51.4933 261.615 51.6737 260.89 51.6737Z" fill="#1F1A17"/>
<path d="M277.747 61.5301V59.6277L277.698 59.3161V56.1345C277.698 55.4019 277.493 54.8389 277.081 54.4453C276.681 54.0517 276.08 53.8549 275.279 53.8549C274.727 53.8549 274.202 53.9478 273.704 54.1337C273.206 54.3195 272.784 54.5655 272.438 54.8717L271.918 54.0025C272.351 53.6307 272.871 53.3465 273.477 53.1497C274.083 52.9419 274.721 52.8381 275.393 52.8381C276.497 52.8381 277.346 53.1169 277.942 53.6745C278.548 54.2211 278.851 55.0575 278.851 56.1837V61.5301H277.747ZM274.808 61.6121C274.169 61.6121 273.612 61.5082 273.136 61.3005C272.67 61.0818 272.313 60.7866 272.064 60.4149C271.815 60.0322 271.691 59.5949 271.691 59.1029C271.691 58.6546 271.793 58.2501 271.999 57.8893C272.216 57.5175 272.562 57.2223 273.038 57.0037C273.525 56.7741 274.175 56.6593 274.987 56.6593H277.926V57.5285H275.019C274.197 57.5285 273.623 57.6761 273.298 57.9713C272.984 58.2665 272.827 58.6327 272.827 59.0701C272.827 59.5621 273.017 59.9557 273.395 60.2509C273.774 60.5461 274.305 60.6937 274.987 60.6937C275.636 60.6937 276.194 60.5461 276.659 60.2509C277.135 59.9447 277.482 59.5074 277.698 58.9389L277.958 59.7425C277.741 60.311 277.363 60.7647 276.821 61.1037C276.291 61.4426 275.62 61.6121 274.808 61.6121Z" fill="#1F1A17"/>
<path d="M281.92 61.5301V52.9201H283.073V56.7249H288.447V52.9201H289.6V61.5301H288.447V57.7253H283.073V61.5301H281.92Z" fill="#1F1A17"/>
<path d="M298.17 61.5301V59.6277L298.121 59.3161V56.1345C298.121 55.4019 297.915 54.8389 297.504 54.4453C297.103 54.0517 296.503 53.8549 295.702 53.8549C295.15 53.8549 294.625 53.9478 294.127 54.1337C293.629 54.3195 293.207 54.5655 292.86 54.8717L292.341 54.0025C292.774 53.6307 293.293 53.3465 293.899 53.1497C294.505 52.9419 295.144 52.8381 295.815 52.8381C296.919 52.8381 297.769 53.1169 298.364 53.6745C298.971 54.2211 299.274 55.0575 299.274 56.1837V61.5301H298.17ZM295.231 61.6121C294.592 61.6121 294.035 61.5082 293.558 61.3005C293.093 61.0818 292.736 60.7866 292.487 60.4149C292.238 60.0322 292.113 59.5949 292.113 59.1029C292.113 58.6546 292.216 58.2501 292.422 57.8893C292.638 57.5175 292.985 57.2223 293.461 57.0037C293.948 56.7741 294.597 56.6593 295.409 56.6593H298.348V57.5285H295.442C294.619 57.5285 294.045 57.6761 293.721 57.9713C293.407 58.2665 293.25 58.6327 293.25 59.0701C293.25 59.5621 293.439 59.9557 293.818 60.2509C294.197 60.5461 294.727 60.6937 295.409 60.6937C296.059 60.6937 296.616 60.5461 297.082 60.2509C297.558 59.9447 297.904 59.5074 298.121 58.9389L298.381 59.7425C298.164 60.311 297.785 60.7647 297.244 61.1037C296.714 61.4426 296.043 61.6121 295.231 61.6121Z" fill="#1F1A17"/>
<path d="M300.784 61.5137L300.865 60.5133C300.941 60.5242 301.011 60.5406 301.076 60.5625C301.152 60.5734 301.217 60.5789 301.271 60.5789C301.617 60.5789 301.893 60.4477 302.099 60.1853C302.315 59.9229 302.478 59.573 302.586 59.1357C302.694 58.6983 302.77 58.2063 302.813 57.6597C302.857 57.1021 302.895 56.5445 302.927 55.9869L303.073 52.9201H309.324V61.5301H308.171V53.5925L308.464 53.9369H303.82L304.096 53.5761L303.966 56.0689C303.934 56.8123 303.874 57.523 303.788 58.2009C303.712 58.8787 303.587 59.4746 303.414 59.9885C303.252 60.5023 303.024 60.9069 302.732 61.2021C302.44 61.4863 302.066 61.6285 301.612 61.6285C301.482 61.6285 301.347 61.6175 301.206 61.5957C301.076 61.5738 300.935 61.5465 300.784 61.5137Z" fill="#1F1A17"/>
<path d="M312.601 61.5301V52.9201H313.754V59.7589L319.453 52.9201H320.476V61.5301H319.323V54.6749L313.64 61.5301H312.601Z" fill="#1F1A17"/>
<path d="M325.895 61.6285C325.278 61.6285 324.666 61.541 324.06 61.3661C323.454 61.1911 322.918 60.9233 322.453 60.5625L322.826 59.6933C323.237 59.9994 323.714 60.2345 324.255 60.3985C324.796 60.5515 325.332 60.6281 325.862 60.6281C326.393 60.6171 326.853 60.5406 327.242 60.3985C327.632 60.2563 327.935 60.0595 328.152 59.8081C328.368 59.5566 328.476 59.2723 328.476 58.9553C328.476 58.4961 328.271 58.1407 327.859 57.8893C327.448 57.6269 326.885 57.4957 326.171 57.4957H324.71V56.6429H326.09C326.512 56.6429 326.885 56.5882 327.21 56.4789C327.535 56.3695 327.784 56.211 327.957 56.0033C328.141 55.7955 328.233 55.5495 328.233 55.2653C328.233 54.9591 328.125 54.6967 327.908 54.4781C327.703 54.2594 327.416 54.0954 327.048 53.9861C326.68 53.8767 326.263 53.8221 325.797 53.8221C325.375 53.833 324.937 53.8986 324.482 54.0189C324.028 54.1282 323.578 54.2977 323.135 54.5273L322.81 53.6253C323.308 53.3629 323.8 53.1661 324.287 53.0349C324.785 52.8927 325.283 52.8217 325.781 52.8217C326.463 52.7998 327.075 52.8818 327.616 53.0677C328.168 53.2535 328.606 53.5214 328.931 53.8713C329.256 54.2102 329.418 54.6202 329.418 55.1013C329.418 55.5277 329.288 55.8994 329.029 56.2165C328.769 56.5335 328.422 56.7795 327.989 56.9545C327.556 57.1294 327.064 57.2169 326.512 57.2169L326.561 56.9053C327.535 56.9053 328.292 57.0966 328.834 57.4793C329.386 57.8619 329.662 58.3813 329.662 59.0373C329.662 59.5511 329.494 60.0049 329.158 60.3985C328.823 60.7811 328.368 61.0818 327.795 61.3005C327.232 61.5191 326.598 61.6285 325.895 61.6285Z" fill="#1F1A17"/>
<path d="M83.5509 40.3414V17.8112H87.8007L97.2516 33.7111H94.9999L104.292 17.8112H108.542L108.574 40.3414H103.753L103.721 25.3106H104.641L97.1882 37.9597H94.9047L87.2932 25.3106H88.3715V40.3414H83.5509Z" fill="#1F1A17"/>
<path d="M122.049 40.5989C120.104 40.5989 118.391 40.2127 116.911 39.4402C115.452 38.6678 114.321 37.6164 113.518 36.286C112.714 34.9342 112.313 33.4 112.313 31.6834C112.313 29.9454 112.704 28.4112 113.486 27.0808C114.289 25.729 115.378 24.6776 116.753 23.9266C118.127 23.1541 119.681 22.7679 121.415 22.7679C123.085 22.7679 124.586 23.1327 125.918 23.8622C127.271 24.5703 128.339 25.6002 129.121 26.9521C129.904 28.2824 130.295 29.881 130.295 31.7478C130.295 31.9409 130.284 32.1662 130.263 32.4237C130.242 32.6597 130.221 32.885 130.2 33.0996H116.34V30.1707H127.599L125.696 31.0397C125.696 30.1385 125.516 29.3553 125.157 28.6901C124.798 28.0249 124.301 27.5099 123.666 27.1452C123.032 26.7589 122.292 26.5658 121.446 26.5658C120.601 26.5658 119.85 26.7589 119.195 27.1452C118.56 27.5099 118.063 28.0357 117.704 28.7223C117.345 29.3875 117.165 30.1814 117.165 31.1041V31.8765C117.165 32.8206 117.366 33.6575 117.767 34.387C118.19 35.0951 118.772 35.6423 119.512 36.0285C120.273 36.3933 121.161 36.5757 122.176 36.5757C123.085 36.5757 123.878 36.4362 124.554 36.1573C125.252 35.8783 125.886 35.4599 126.457 34.902L129.09 37.7987C128.307 38.6999 127.324 39.3973 126.14 39.8908C124.956 40.3629 123.592 40.5989 122.049 40.5989Z" fill="#1F1A17"/>
<path d="M145.667 38.0884V27.1452H140.085L139.99 29.366C139.947 30.2887 139.895 31.1684 139.831 32.0053C139.768 32.8421 139.641 33.6038 139.451 34.2905C139.281 34.9556 139.028 35.5243 138.689 35.9963C138.351 36.4469 137.897 36.7581 137.326 36.9297L132.442 36.2216C133.055 36.2216 133.552 36.0392 133.932 35.6745C134.313 35.2882 134.609 34.7625 134.82 34.0973C135.032 33.4107 135.19 32.6383 135.296 31.78C135.402 30.9002 135.476 29.9775 135.518 29.012L135.74 23.0254H150.614V38.0884H145.667ZM131.871 44.075V36.2216H153.056V44.075H148.457V40.3414H136.469V44.075H131.871Z" fill="#1F1A17"/>
<path d="M160.396 30.9431V26.9521H171.369V30.9431H160.396ZM163.313 17.425C164.984 17.425 166.517 17.7147 167.912 18.294C169.308 18.8519 170.523 19.6566 171.559 20.708C172.595 21.7594 173.399 22.9932 173.97 24.4094C174.54 25.8255 174.826 27.3812 174.826 29.0763C174.826 30.7715 174.54 32.3271 173.97 33.7433C173.399 35.1595 172.595 36.3933 171.559 37.4447C170.523 38.4961 169.308 39.3115 167.912 39.8908C166.517 40.4487 164.984 40.7277 163.313 40.7277C161.347 40.7277 159.571 40.3843 157.985 39.6977C156.421 39.0111 155.11 38.0133 154.053 36.7044L157.319 33.6146C158.102 34.5158 158.969 35.1917 159.92 35.6423C160.871 36.0714 161.918 36.286 163.06 36.286C164.011 36.286 164.889 36.1143 165.692 35.771C166.517 35.4062 167.214 34.9127 167.785 34.2905C168.377 33.6467 168.821 32.885 169.117 32.0053C169.434 31.1255 169.593 30.1492 169.593 29.0763C169.593 28.0035 169.434 27.0272 169.117 26.1474C168.821 25.2677 168.377 24.5167 167.785 23.8944C167.214 23.2507 166.517 22.7571 165.692 22.4138C164.889 22.0491 164.011 21.8667 163.06 21.8667C161.918 21.8667 160.871 22.092 159.92 22.5426C158.969 22.9717 158.102 23.6369 157.319 24.5381L154.053 21.4483C155.11 20.1394 156.421 19.1416 157.985 18.455C159.571 17.7683 161.347 17.425 163.313 17.425Z" fill="#1F1A17"/>
<path d="M190.552 40.3414L184.843 32.134L188.871 29.7201L196.388 40.3414H190.552ZM178.469 40.3414V23.0254H183.416V40.3414H178.469ZM181.957 33.7755V29.7522H187.92V33.7755H181.957ZM189.347 32.2627L184.717 31.7478L190.711 23.0254H195.975L189.347 32.2627Z" fill="#1F1A17"/>
<path d="M206.282 40.5989C204.464 40.5989 202.847 40.2127 201.43 39.4402C200.035 38.6678 198.925 37.6164 198.1 36.286C197.297 34.9342 196.895 33.4 196.895 31.6834C196.895 29.9454 197.297 28.4112 198.1 27.0808C198.925 25.729 200.035 24.6776 201.43 23.9266C202.847 23.1541 204.464 22.7679 206.282 22.7679C208.08 22.7679 209.687 23.1541 211.103 23.9266C212.52 24.6776 213.63 25.7183 214.433 27.0486C215.237 28.379 215.638 29.9239 215.638 31.6834C215.638 33.4 215.237 34.9342 214.433 36.286C213.63 37.6164 212.52 38.6678 211.103 39.4402C209.687 40.2127 208.08 40.5989 206.282 40.5989ZM206.282 36.4791C207.107 36.4791 207.847 36.286 208.503 35.8998C209.158 35.5135 209.676 34.9664 210.057 34.2583C210.437 33.5287 210.627 32.6704 210.627 31.6834C210.627 30.6749 210.437 29.8166 210.057 29.1085C209.676 28.4004 209.158 27.8533 208.503 27.467C207.847 27.0808 207.107 26.8877 206.282 26.8877C205.458 26.8877 204.718 27.0808 204.062 27.467C203.407 27.8533 202.878 28.4004 202.477 29.1085C202.096 29.8166 201.906 30.6749 201.906 31.6834C201.906 32.6704 202.096 33.5287 202.477 34.2583C202.878 34.9664 203.407 35.5135 204.062 35.8998C204.718 36.286 205.458 36.4791 206.282 36.4791Z" fill="#1F1A17"/>
<path d="M222.136 40.3414V20.8689L223.309 22.0598H215.063V17.8112H234.314V22.0598H226.068L227.21 20.8689V40.3414H222.136Z" fill="#1F1A17"/>
<path d="M243.766 40.5989C241.821 40.5989 240.108 40.2127 238.628 39.4402C237.169 38.6678 236.038 37.6164 235.235 36.286C234.431 34.9342 234.029 33.4 234.029 31.6834C234.029 29.9454 234.421 28.4112 235.203 27.0808C236.006 25.729 237.095 24.6776 238.47 23.9266C239.844 23.1541 241.398 22.7679 243.132 22.7679C244.802 22.7679 246.303 23.1327 247.635 23.8622C248.988 24.5703 250.056 25.6002 250.838 26.9521C251.62 28.2824 252.012 29.881 252.012 31.7478C252.012 31.9409 252.001 32.1662 251.98 32.4237C251.959 32.6597 251.938 32.885 251.916 33.0996H238.057V30.1707H249.316L247.413 31.0397C247.413 30.1385 247.233 29.3553 246.874 28.6901C246.514 28.0249 246.018 27.5099 245.383 27.1452C244.749 26.7589 244.009 26.5658 243.163 26.5658C242.318 26.5658 241.567 26.7589 240.912 27.1452C240.277 27.5099 239.78 28.0357 239.421 28.7223C239.062 29.3875 238.882 30.1814 238.882 31.1041V31.8765C238.882 32.8206 239.083 33.6575 239.484 34.387C239.907 35.0951 240.489 35.6423 241.229 36.0285C241.99 36.3933 242.878 36.5757 243.893 36.5757C244.802 36.5757 245.595 36.4362 246.271 36.1573C246.969 35.8783 247.603 35.4599 248.174 34.902L250.806 37.7987C250.024 38.6999 249.041 39.3973 247.857 39.8908C246.673 40.3629 245.309 40.5989 243.766 40.5989Z" fill="#1F1A17"/>
<path d="M263.923 40.5989C262.083 40.5989 260.445 40.2234 259.007 39.4724C257.569 38.6999 256.438 37.6378 255.614 36.286C254.81 34.9342 254.409 33.4 254.409 31.6834C254.409 29.9454 254.81 28.4112 255.614 27.0808C256.438 25.729 257.569 24.6776 259.007 23.9266C260.445 23.1541 262.083 22.7679 263.923 22.7679C265.72 22.7679 267.285 23.1541 268.617 23.9266C269.949 24.6776 270.932 25.7612 271.566 27.1774L267.729 29.2695C267.285 28.4541 266.724 27.8533 266.048 27.467C265.392 27.0808 264.673 26.8877 263.891 26.8877C263.045 26.8877 262.284 27.0808 261.608 27.467C260.931 27.8533 260.392 28.4004 259.99 29.1085C259.61 29.8166 259.419 30.6749 259.419 31.6834C259.419 32.6919 259.61 33.5502 259.99 34.2583C260.392 34.9664 260.931 35.5135 261.608 35.8998C262.284 36.286 263.045 36.4791 263.891 36.4791C264.673 36.4791 265.392 36.2967 266.048 35.932C266.724 35.5457 267.285 34.9342 267.729 34.0973L271.566 36.2216C270.932 37.6164 269.949 38.6999 268.617 39.4724C267.285 40.2234 265.72 40.5989 263.923 40.5989Z" fill="#1F1A17"/>
<path d="M278.189 40.3414V25.9865L279.299 27.1452H272.417V23.0254H288.877V27.1452H281.995L283.105 25.9865V40.3414H278.189Z" fill="#1F1A17"/>
</svg>
