<svg width="325" height="80" viewBox="0 0 325 80" fill="none" xmlns="http://www.w3.org/2000/svg">
<path d="M0.333138 1.66666H19.1292V31.3621H0.333138V1.66666Z" fill="#DA251C"/>
<path d="M0.333138 31.3621H19.1292V44.2301H0.333138V31.3621Z" fill="#1F1A17"/>
<path d="M46.4989 31.3621H65.295V44.2301H46.4989V31.3621Z" fill="#1F1A17"/>
<path d="M23.416 31.3621H42.2121V58.4179H23.416V31.3621Z" fill="#1F1A17"/>
<path d="M23.416 1.66666H42.2121V31.3621H23.416V1.66666Z" fill="#DA251C"/>
<path d="M46.4989 1.66666H65.295V31.3621H46.4989V1.66666Z" fill="#DA251C"/>
<mask id="path-2-inside-1_63_3067" fill="white">
<path d="M65.295 47.8596C65.295 55.9978 61.8729 63.8027 55.7816 69.5573C49.6902 75.3119 41.4285 78.5448 32.8141 78.5448C24.1996 78.5448 15.9379 75.3119 9.84658 69.5573C3.75523 63.8027 0.333139 55.9978 0.333138 47.8596L8.12856 47.8596C8.12856 54.0446 10.7293 59.9764 15.3588 64.3499C19.9882 68.7234 26.2671 71.1804 32.8141 71.1804C39.3611 71.1804 45.6399 68.7234 50.2694 64.3499C54.8988 59.9764 57.4996 54.0446 57.4996 47.8596L65.295 47.8596Z"/>
</mask>
<path d="M65.295 47.8596L113.295 47.8596V-0.140442H65.295V47.8596ZM0.333138 47.8596L0.333131 -0.140438L-47.6669 -0.14043L-47.6669 47.8596L0.333138 47.8596ZM8.12856 47.8596L56.1286 47.8596L56.1286 -0.140446L8.12855 -0.140438L8.12856 47.8596ZM32.8141 71.1804V119.18V71.1804ZM57.4996 47.8596V-0.140442H9.49957V47.8596H57.4996ZM17.295 47.8596C17.295 42.3581 19.6335 37.6745 22.8186 34.6654L88.7445 104.449C104.112 89.9309 113.295 69.6375 113.295 47.8596L17.295 47.8596ZM22.8186 34.6654C25.9111 31.7439 29.5511 30.5448 32.8141 30.5448L32.8141 126.545C53.306 126.545 73.4693 118.88 88.7445 104.449L22.8186 34.6654ZM32.8141 30.5448C36.077 30.5448 39.717 31.7439 42.8095 34.6654L-23.1164 104.449C-7.84115 118.88 12.3222 126.545 32.8141 126.545L32.8141 30.5448ZM42.8095 34.6654C45.9947 37.6745 48.3331 42.3581 48.3331 47.8596L-47.6669 47.8596C-47.6669 69.6375 -38.4842 89.931 -23.1164 104.449L42.8095 34.6654ZM0.333144 95.8596H8.12857L8.12855 -0.140438H0.333131L0.333144 95.8596ZM-39.8714 47.8596C-39.8714 67.6843 -31.5101 86.1046 -17.6042 99.2418L48.3217 29.458C52.9688 33.8481 56.1286 40.405 56.1286 47.8596L-39.8714 47.8596ZM-17.6042 99.2418C-3.79087 112.291 14.3896 119.18 32.8141 119.18L32.8141 23.1804C38.1445 23.1804 43.7673 25.1553 48.3217 29.458L-17.6042 99.2418ZM32.8141 119.18C51.2385 119.18 69.419 112.291 83.2323 99.2417L17.3064 29.458C21.8608 25.1553 27.4836 23.1804 32.8141 23.1804L32.8141 119.18ZM83.2323 99.2417C97.1382 86.1046 105.5 67.6843 105.5 47.8596H9.49957C9.49957 40.405 12.6593 33.8481 17.3064 29.458L83.2323 99.2417ZM57.4996 95.8596H65.295V-0.140442H57.4996V95.8596Z" fill="#1F1A17" mask="url(#path-2-inside-1_63_3067)"/>
<path d="M82.285 60.0293V48.8293H90.4722V49.8373H83.4523V53.5013H87.1142C88.4361 53.5013 89.4382 53.7733 90.1204 54.3173C90.8134 54.8507 91.1598 55.64 91.1598 56.6853C91.1598 57.7627 90.7867 58.5893 90.0405 59.1653C89.3049 59.7413 88.2442 60.0293 86.8583 60.0293H82.285ZM83.4523 59.0853H86.8424C87.8764 59.0853 88.6546 58.888 89.177 58.4933C89.71 58.088 89.9765 57.5013 89.9765 56.7333C89.9765 55.208 88.9318 54.4453 86.8424 54.4453H83.4523V59.0853Z" fill="#1F1A17"/>
<path d="M101.803 60.0293V51.6293H102.938V60.0293H101.803ZM97.1497 54.5893C98.2051 54.6 99.0099 54.8347 99.5643 55.2933C100.119 55.752 100.396 56.4133 100.396 57.2773C100.396 58.1733 100.097 58.8613 99.5003 59.3413C98.9033 59.8213 98.0505 60.056 96.9418 60.0453L93.6158 60.0293V51.6293H94.7511V54.5573L97.1497 54.5893ZM96.8619 59.1813C97.6507 59.192 98.2424 59.0373 98.6368 58.7173C99.0419 58.3867 99.2445 57.9067 99.2445 57.2773C99.2445 56.648 99.0472 56.1893 98.6528 55.9013C98.2584 55.6027 97.6614 55.448 96.8619 55.4373L94.7511 55.4053V59.1493L96.8619 59.1813Z" fill="#1F1A17"/>
<path d="M109.689 60.1093C108.857 60.1093 108.111 59.928 107.45 59.5653C106.8 59.192 106.288 58.6853 105.915 58.0453C105.542 57.3947 105.355 56.6533 105.355 55.8213C105.355 54.9787 105.542 54.2373 105.915 53.5973C106.288 52.9573 106.8 52.456 107.45 52.0933C108.111 51.7307 108.857 51.5493 109.689 51.5493C110.403 51.5493 111.048 51.688 111.624 51.9653C112.199 52.2427 112.652 52.6587 112.983 53.2133L112.135 53.7893C111.848 53.3627 111.49 53.048 111.064 52.8453C110.638 52.6427 110.174 52.5413 109.673 52.5413C109.076 52.5413 108.537 52.68 108.058 52.9573C107.578 53.224 107.2 53.6027 106.922 54.0933C106.645 54.584 106.507 55.16 106.507 55.8213C106.507 56.4827 106.645 57.0587 106.922 57.5493C107.2 58.04 107.578 58.424 108.058 58.7013C108.537 58.968 109.076 59.1013 109.673 59.1013C110.174 59.1013 110.638 59 111.064 58.7973C111.49 58.5947 111.848 58.2853 112.135 57.8693L112.983 58.4453C112.652 58.9893 112.199 59.4053 111.624 59.6933C111.048 59.9707 110.403 60.1093 109.689 60.1093Z" fill="#1F1A17"/>
<path d="M116.624 60.0293V52.3173L116.912 52.6213H113.442V51.6293H120.942V52.6213H117.472L117.759 52.3173V60.0293H116.624Z" fill="#1F1A17"/>
<path d="M126.917 60.1093C126.192 60.1093 125.536 59.944 124.95 59.6133C124.363 59.272 123.894 58.7867 123.543 58.1573C123.201 57.5173 123.031 56.7387 123.031 55.8213C123.031 54.904 123.201 54.1307 123.543 53.5013C123.884 52.8613 124.347 52.376 124.934 52.0453C125.52 51.7147 126.181 51.5493 126.917 51.5493C127.716 51.5493 128.43 51.7307 129.059 52.0933C129.699 52.4453 130.2 52.9467 130.562 53.5973C130.925 54.2373 131.106 54.9787 131.106 55.8213C131.106 56.6747 130.925 57.4213 130.562 58.0613C130.2 58.7013 129.699 59.2027 129.059 59.5653C128.43 59.928 127.716 60.1093 126.917 60.1093ZM122.583 63.1333V51.6293H123.67V54.1573L123.559 55.8373L123.718 57.5333V63.1333H122.583ZM126.837 59.1013C127.434 59.1013 127.967 58.968 128.436 58.7013C128.905 58.424 129.278 58.04 129.555 57.5493C129.832 57.048 129.971 56.472 129.971 55.8213C129.971 55.1707 129.832 54.6 129.555 54.1093C129.278 53.6187 128.905 53.2347 128.436 52.9573C127.967 52.68 127.434 52.5413 126.837 52.5413C126.24 52.5413 125.701 52.68 125.222 52.9573C124.753 53.2347 124.379 53.6187 124.102 54.1093C123.836 54.6 123.702 55.1707 123.702 55.8213C123.702 56.472 123.836 57.048 124.102 57.5493C124.379 58.04 124.753 58.424 125.222 58.7013C125.701 58.968 126.24 59.1013 126.837 59.1013Z" fill="#1F1A17"/>
<path d="M141.733 60.0293V51.6293H142.868V60.0293H141.733ZM137.079 54.5893C138.135 54.6 138.94 54.8347 139.494 55.2933C140.048 55.752 140.325 56.4133 140.325 57.2773C140.325 58.1733 140.027 58.8613 139.43 59.3413C138.833 59.8213 137.98 60.056 136.871 60.0453L133.545 60.0293V51.6293H134.681V54.5573L137.079 54.5893ZM136.792 59.1813C137.58 59.192 138.172 59.0373 138.566 58.7173C138.972 58.3867 139.174 57.9067 139.174 57.2773C139.174 56.648 138.977 56.1893 138.582 55.9013C138.188 55.6027 137.591 55.448 136.792 55.4373L134.681 55.4053V59.1493L136.792 59.1813Z" fill="#1F1A17"/>
<path d="M146.101 60.0293V51.6293H147.236V58.3013L152.849 51.6293H153.856V60.0293H152.721V53.3413L147.124 60.0293H146.101ZM149.906 50.4133C149.203 50.4133 148.632 50.2373 148.195 49.8853C147.769 49.5227 147.545 49.0053 147.524 48.3333H148.339C148.35 48.76 148.499 49.096 148.787 49.3413C149.075 49.5867 149.448 49.7093 149.906 49.7093C150.365 49.7093 150.738 49.5867 151.026 49.3413C151.324 49.096 151.479 48.76 151.489 48.3333H152.305C152.294 49.0053 152.07 49.5227 151.633 49.8853C151.196 50.2373 150.621 50.4133 149.906 50.4133Z" fill="#1F1A17"/>
<path d="M159.92 60.0293L163.469 55.4213L163.454 55.9813L160.079 51.6293H161.359L164.125 55.2293L163.645 55.2133L166.412 51.6293H167.659L164.253 56.0293L164.269 55.4213L167.851 60.0293H166.556L163.629 56.1893L164.077 56.2533L161.199 60.0293H159.92Z" fill="#1F1A17"/>
<path d="M169.712 60.0293V51.6293H170.847V58.3013L176.46 51.6293H177.467V60.0293H176.332V53.3413L170.735 60.0293H169.712Z" fill="#1F1A17"/>
<path d="M180.721 60.0293V51.6293H181.872L185.678 58.0773H185.198L189.068 51.6293H190.123V60.0293H189.084V52.9253L189.292 53.0213L185.678 59.0053H185.166L181.52 52.9573L181.76 52.9093V60.0293H180.721Z" fill="#1F1A17"/>
<path d="M193.354 60.0293V51.6293H194.489V58.3013L200.102 51.6293H201.11V60.0293H199.974V53.3413L194.377 60.0293H193.354Z" fill="#1F1A17"/>
<path d="M209.672 56.4773C209.182 56.6907 208.686 56.8613 208.185 56.9893C207.695 57.1067 207.204 57.1653 206.714 57.1653C205.722 57.1653 204.939 56.9413 204.363 56.4933C203.788 56.0347 203.5 55.3307 203.5 54.3813V51.6293H204.619V54.3173C204.619 54.9573 204.827 55.4373 205.243 55.7573C205.658 56.0773 206.218 56.2373 206.922 56.2373C207.348 56.2373 207.796 56.184 208.265 56.0773C208.734 55.96 209.208 55.7947 209.688 55.5813L209.672 56.4773ZM209.576 60.0293V51.6293H210.712V60.0293H209.576Z" fill="#1F1A17"/>
<path d="M217.534 60.1093C216.659 60.1093 215.892 59.928 215.231 59.5653C214.57 59.192 214.053 58.6853 213.68 58.0453C213.307 57.3947 213.12 56.6533 213.12 55.8213C213.12 54.9893 213.296 54.2533 213.648 53.6133C214.01 52.9733 214.501 52.472 215.119 52.1093C215.748 51.736 216.452 51.5493 217.23 51.5493C218.019 51.5493 218.717 51.7307 219.325 52.0933C219.943 52.4453 220.428 52.9467 220.78 53.5973C221.132 54.2373 221.307 54.9787 221.307 55.8213C221.307 55.8747 221.302 55.9333 221.291 55.9973C221.291 56.0507 221.291 56.1093 221.291 56.1733H213.984V55.3253H220.684L220.236 55.6613C220.236 55.0533 220.103 54.5147 219.836 54.0453C219.58 53.5653 219.229 53.192 218.781 52.9253C218.333 52.6587 217.816 52.5253 217.23 52.5253C216.654 52.5253 216.137 52.6587 215.679 52.9253C215.22 53.192 214.863 53.5653 214.607 54.0453C214.352 54.5253 214.224 55.0747 214.224 55.6933V55.8693C214.224 56.5093 214.362 57.0747 214.639 57.5653C214.927 58.0453 215.322 58.424 215.823 58.7013C216.334 58.968 216.915 59.1013 217.566 59.1013C218.077 59.1013 218.552 59.0107 218.989 58.8293C219.437 58.648 219.82 58.3707 220.14 57.9973L220.78 58.7333C220.407 59.1813 219.938 59.5227 219.373 59.7573C218.818 59.992 218.205 60.1093 217.534 60.1093Z" fill="#1F1A17"/>
<path d="M227.339 60.1093C226.507 60.1093 225.761 59.928 225.1 59.5653C224.45 59.192 223.938 58.6853 223.565 58.0453C223.192 57.3947 223.005 56.6533 223.005 55.8213C223.005 54.9787 223.192 54.2373 223.565 53.5973C223.938 52.9573 224.45 52.456 225.1 52.0933C225.761 51.7307 226.507 51.5493 227.339 51.5493C228.053 51.5493 228.698 51.688 229.273 51.9653C229.849 52.2427 230.302 52.6587 230.633 53.2133L229.785 53.7893C229.497 53.3627 229.14 53.048 228.714 52.8453C228.287 52.6427 227.824 52.5413 227.323 52.5413C226.726 52.5413 226.187 52.68 225.707 52.9573C225.228 53.224 224.849 53.6027 224.572 54.0933C224.295 54.584 224.156 55.16 224.156 55.8213C224.156 56.4827 224.295 57.0587 224.572 57.5493C224.849 58.04 225.228 58.424 225.707 58.7013C226.187 58.968 226.726 59.1013 227.323 59.1013C227.824 59.1013 228.287 59 228.714 58.7973C229.14 58.5947 229.497 58.2853 229.785 57.8693L230.633 58.4453C230.302 58.9893 229.849 59.4053 229.273 59.6933C228.698 59.9707 228.053 60.1093 227.339 60.1093Z" fill="#1F1A17"/>
<path d="M238.987 60.0293L235.533 55.8693L236.477 55.3093L240.331 60.0293H238.987ZM232.831 60.0293V51.6293H233.966V60.0293H232.831ZM233.614 56.2853V55.3093H236.317V56.2853H233.614ZM236.573 55.9493L235.517 55.7893L238.859 51.6293H240.091L236.573 55.9493Z" fill="#1F1A17"/>
<path d="M242.122 60.0293V51.6293H243.258V58.3013L248.87 51.6293H249.878V60.0293H248.742V53.3413L243.146 60.0293H242.122Z" fill="#1F1A17"/>
<path d="M253.131 60.0293V51.6293H254.267V58.3013L259.88 51.6293H260.887V60.0293H259.752V53.3413L254.155 60.0293H253.131ZM256.937 50.4133C256.234 50.4133 255.663 50.2373 255.226 49.8853C254.8 49.5227 254.576 49.0053 254.555 48.3333H255.37C255.381 48.76 255.53 49.096 255.818 49.3413C256.106 49.5867 256.479 49.7093 256.937 49.7093C257.396 49.7093 257.769 49.5867 258.057 49.3413C258.355 49.096 258.51 48.76 258.52 48.3333H259.336C259.325 49.0053 259.101 49.5227 258.664 49.8853C258.227 50.2373 257.651 50.4133 256.937 50.4133Z" fill="#1F1A17"/>
<path d="M273.539 60.0293V58.1733L273.491 57.8693V54.7653C273.491 54.0507 273.288 53.5013 272.883 53.1173C272.489 52.7333 271.897 52.5413 271.108 52.5413C270.564 52.5413 270.047 52.632 269.557 52.8133C269.067 52.9947 268.651 53.2347 268.31 53.5333L267.798 52.6853C268.224 52.3227 268.736 52.0453 269.333 51.8533C269.93 51.6507 270.559 51.5493 271.22 51.5493C272.307 51.5493 273.144 51.8213 273.731 52.3653C274.327 52.8987 274.626 53.7147 274.626 54.8133V60.0293H273.539ZM270.644 60.1093C270.015 60.1093 269.466 60.008 268.997 59.8053C268.539 59.592 268.187 59.304 267.942 58.9413C267.697 58.568 267.574 58.1413 267.574 57.6613C267.574 57.224 267.675 56.8293 267.878 56.4773C268.091 56.1147 268.432 55.8267 268.901 55.6133C269.381 55.3893 270.021 55.2773 270.82 55.2773H273.715V56.1253H270.852C270.042 56.1253 269.477 56.2693 269.157 56.5573C268.848 56.8453 268.693 57.2027 268.693 57.6293C268.693 58.1093 268.88 58.4933 269.253 58.7813C269.626 59.0693 270.149 59.2133 270.82 59.2133C271.46 59.2133 272.009 59.0693 272.467 58.7813C272.936 58.4827 273.277 58.056 273.491 57.5013L273.747 58.2853C273.533 58.84 273.16 59.2827 272.627 59.6133C272.105 59.944 271.444 60.1093 270.644 60.1093Z" fill="#1F1A17"/>
<path d="M277.648 60.0293V51.6293H278.784V55.3413H284.077V51.6293H285.212V60.0293H284.077V56.3173H278.784V60.0293H277.648Z" fill="#1F1A17"/>
<path d="M293.652 60.0293V58.1733L293.604 57.8693V54.7653C293.604 54.0507 293.401 53.5013 292.996 53.1173C292.602 52.7333 292.01 52.5413 291.221 52.5413C290.678 52.5413 290.161 52.632 289.67 52.8133C289.18 52.9947 288.764 53.2347 288.423 53.5333L287.911 52.6853C288.338 52.3227 288.849 52.0453 289.446 51.8533C290.043 51.6507 290.672 51.5493 291.333 51.5493C292.421 51.5493 293.257 51.8213 293.844 52.3653C294.441 52.8987 294.739 53.7147 294.739 54.8133V60.0293H293.652ZM290.758 60.1093C290.129 60.1093 289.58 60.008 289.11 59.8053C288.652 59.592 288.3 59.304 288.055 58.9413C287.81 58.568 287.687 58.1413 287.687 57.6613C287.687 57.224 287.789 56.8293 287.991 56.4773C288.204 56.1147 288.545 55.8267 289.015 55.6133C289.494 55.3893 290.134 55.2773 290.933 55.2773H293.828V56.1253H290.965C290.155 56.1253 289.59 56.2693 289.27 56.5573C288.961 56.8453 288.807 57.2027 288.807 57.6293C288.807 58.1093 288.993 58.4933 289.366 58.7813C289.739 59.0693 290.262 59.2133 290.933 59.2133C291.573 59.2133 292.122 59.0693 292.58 58.7813C293.05 58.4827 293.391 58.056 293.604 57.5013L293.86 58.2853C293.646 58.84 293.273 59.2827 292.74 59.6133C292.218 59.944 291.557 60.1093 290.758 60.1093Z" fill="#1F1A17"/>
<path d="M296.226 60.0133L296.306 59.0373C296.381 59.048 296.45 59.064 296.514 59.0853C296.589 59.096 296.653 59.1013 296.706 59.1013C297.047 59.1013 297.319 58.9733 297.522 58.7173C297.735 58.4613 297.895 58.12 298.001 57.6933C298.108 57.2667 298.183 56.7867 298.225 56.2533C298.268 55.7093 298.305 55.1653 298.337 54.6213L298.481 51.6293H304.637V60.0293H303.502V52.2853L303.79 52.6213H299.217L299.489 52.2693L299.361 54.7013C299.329 55.4267 299.27 56.12 299.185 56.7813C299.11 57.4427 298.987 58.024 298.817 58.5253C298.657 59.0267 298.433 59.4213 298.145 59.7093C297.857 59.9867 297.49 60.1253 297.042 60.1253C296.914 60.1253 296.781 60.1147 296.642 60.0933C296.514 60.072 296.376 60.0453 296.226 60.0133Z" fill="#1F1A17"/>
<path d="M307.865 60.0293V51.6293H309V58.3013L314.613 51.6293H315.62V60.0293H314.485V53.3413L308.888 60.0293H307.865Z" fill="#1F1A17"/>
<path d="M320.957 60.1253C320.349 60.1253 319.747 60.04 319.15 59.8693C318.553 59.6987 318.025 59.4373 317.567 59.0853L317.935 58.2373C318.34 58.536 318.809 58.7653 319.342 58.9253C319.875 59.0747 320.403 59.1493 320.925 59.1493C321.447 59.1387 321.9 59.064 322.284 58.9253C322.668 58.7867 322.967 58.5947 323.18 58.3493C323.393 58.104 323.5 57.8267 323.5 57.5173C323.5 57.0693 323.297 56.7227 322.892 56.4773C322.487 56.2213 321.932 56.0933 321.229 56.0933H319.79V55.2613H321.149C321.565 55.2613 321.932 55.208 322.252 55.1013C322.572 54.9947 322.817 54.84 322.988 54.6373C323.169 54.4347 323.26 54.1947 323.26 53.9173C323.26 53.6187 323.153 53.3627 322.94 53.1493C322.737 52.936 322.455 52.776 322.092 52.6693C321.73 52.5627 321.319 52.5093 320.861 52.5093C320.445 52.52 320.014 52.584 319.566 52.7013C319.118 52.808 318.676 52.9733 318.239 53.1973L317.919 52.3173C318.409 52.0613 318.894 51.8693 319.374 51.7413C319.864 51.6027 320.355 51.5333 320.845 51.5333C321.517 51.512 322.119 51.592 322.652 51.7733C323.196 51.9547 323.627 52.216 323.947 52.5573C324.267 52.888 324.427 53.288 324.427 53.7573C324.427 54.1733 324.299 54.536 324.043 54.8453C323.787 55.1547 323.446 55.3947 323.02 55.5653C322.593 55.736 322.108 55.8213 321.565 55.8213L321.613 55.5173C322.572 55.5173 323.318 55.704 323.851 56.0773C324.395 56.4507 324.667 56.9573 324.667 57.5973C324.667 58.0987 324.502 58.5413 324.171 58.9253C323.841 59.2987 323.393 59.592 322.828 59.8053C322.274 60.0187 321.65 60.1253 320.957 60.1253Z" fill="#1F1A17"/>
<path d="M82.285 39.3575V17.3768H86.4704L95.7781 32.8889H93.5605L102.712 17.3768H106.897L106.929 39.3575H102.181L102.15 24.6932H103.056L95.7157 37.0338H93.4668L85.9706 24.6932H87.0326V39.3575H82.285Z" fill="#1F1A17"/>
<path d="M120.2 39.6087C118.284 39.6087 116.597 39.2319 115.14 38.4783C113.703 37.7246 112.589 36.6989 111.798 35.401C111.006 34.0821 110.611 32.5853 110.611 30.9106C110.611 29.215 110.996 27.7182 111.767 26.4203C112.558 25.1014 113.63 24.0757 114.984 23.343C116.337 22.5894 117.868 22.2126 119.575 22.2126C121.22 22.2126 122.698 22.5684 124.01 23.2802C125.343 23.971 126.394 24.9758 127.165 26.2947C127.935 27.5926 128.321 29.1522 128.321 30.9734C128.321 31.1618 128.31 31.3816 128.289 31.6328C128.268 31.8631 128.248 32.0829 128.227 32.2923H114.578V29.4348H125.666L123.792 30.2826C123.792 29.4034 123.615 28.6393 123.261 27.9903C122.907 27.3414 122.417 26.839 121.793 26.4831C121.168 26.1063 120.439 25.9179 119.606 25.9179C118.773 25.9179 118.034 26.1063 117.389 26.4831C116.764 26.839 116.275 27.3519 115.921 28.0217C115.567 28.6707 115.39 29.4452 115.39 30.3454V31.099C115.39 32.0201 115.587 32.8366 115.983 33.5483C116.4 34.2391 116.972 34.7729 117.701 35.1498C118.451 35.5056 119.325 35.6836 120.325 35.6836C121.22 35.6836 122.001 35.5475 122.667 35.2754C123.354 35.0032 123.979 34.595 124.541 34.0507L127.134 36.8768C126.363 37.756 125.395 38.4364 124.229 38.9179C123.063 39.3784 121.72 39.6087 120.2 39.6087Z" fill="#1F1A17"/>
<path d="M143.46 37.1594V26.4831H137.962L137.869 28.6498C137.827 29.5499 137.775 30.4082 137.712 31.2246C137.65 32.0411 137.525 32.7842 137.338 33.4541C137.171 34.1031 136.921 34.6578 136.588 35.1184C136.255 35.558 135.807 35.8615 135.245 36.029L130.435 35.3382C131.039 35.3382 131.528 35.1602 131.903 34.8043C132.278 34.4275 132.569 33.9147 132.778 33.2657C132.986 32.5958 133.142 31.8422 133.246 31.0048C133.35 30.1465 133.423 29.2464 133.465 28.3043L133.683 22.4638H148.332V37.1594H143.46ZM129.873 43V35.3382H150.737V43H146.208V39.3575H134.402V43H129.873Z" fill="#1F1A17"/>
<path d="M157.966 30.1884V26.2947H168.772V30.1884H157.966ZM160.839 17C162.484 17 163.994 17.2826 165.368 17.8478C166.742 18.3921 167.94 19.1771 168.96 20.2029C169.98 21.2287 170.771 22.4324 171.334 23.814C171.896 25.1957 172.177 26.7134 172.177 28.3671C172.177 30.0209 171.896 31.5386 171.334 32.9203C170.771 34.3019 169.98 35.5056 168.96 36.5314C167.94 37.5572 166.742 38.3527 165.368 38.9179C163.994 39.4622 162.484 39.7343 160.839 39.7343C158.903 39.7343 157.153 39.3994 155.592 38.7295C154.051 38.0596 152.76 37.0861 151.719 35.8092L154.936 32.7947C155.706 33.6739 156.56 34.3333 157.497 34.7729C158.434 35.1916 159.465 35.401 160.589 35.401C161.526 35.401 162.39 35.2335 163.182 34.8986C163.994 34.5427 164.681 34.0612 165.243 33.4541C165.826 32.8261 166.263 32.0829 166.555 31.2246C166.867 30.3663 167.023 29.4138 167.023 28.3671C167.023 27.3204 166.867 26.368 166.555 25.5097C166.263 24.6514 165.826 23.9187 165.243 23.3116C164.681 22.6836 163.994 22.2021 163.182 21.8671C162.39 21.5113 161.526 21.3333 160.589 21.3333C159.465 21.3333 158.434 21.5531 157.497 21.9928C156.56 22.4114 155.706 23.0604 154.936 23.9396L151.719 20.9251C152.76 19.6481 154.051 18.6747 155.592 18.0048C157.153 17.3349 158.903 17 160.839 17Z" fill="#1F1A17"/>
<path d="M187.665 39.3575L182.043 31.3502L186.01 28.9952L193.412 39.3575H187.665ZM175.765 39.3575V22.4638H180.637V39.3575H175.765ZM179.201 32.9517V29.0266H185.073V32.9517H179.201ZM186.478 31.4758L181.918 30.9734L187.821 22.4638H193.006L186.478 31.4758Z" fill="#1F1A17"/>
<path d="M203.157 39.6087C201.366 39.6087 199.773 39.2319 198.378 38.4783C197.004 37.7246 195.911 36.6989 195.099 35.401C194.307 34.0821 193.912 32.5853 193.912 30.9106C193.912 29.215 194.307 27.7182 195.099 26.4203C195.911 25.1014 197.004 24.0757 198.378 23.343C199.773 22.5894 201.366 22.2126 203.157 22.2126C204.927 22.2126 206.509 22.5894 207.905 23.343C209.3 24.0757 210.393 25.091 211.184 26.3889C211.975 27.6868 212.371 29.194 212.371 30.9106C212.371 32.5853 211.975 34.0821 211.184 35.401C210.393 36.6989 209.3 37.7246 207.905 38.4783C206.509 39.2319 204.927 39.6087 203.157 39.6087ZM203.157 35.5894C203.969 35.5894 204.698 35.401 205.343 35.0242C205.989 34.6473 206.499 34.1135 206.874 33.4227C207.249 32.7109 207.436 31.8736 207.436 30.9106C207.436 29.9267 207.249 29.0894 206.874 28.3986C206.499 27.7077 205.989 27.1739 205.343 26.7971C204.698 26.4203 203.969 26.2319 203.157 26.2319C202.345 26.2319 201.616 26.4203 200.971 26.7971C200.325 27.1739 199.805 27.7077 199.409 28.3986C199.034 29.0894 198.847 29.9267 198.847 30.9106C198.847 31.8736 199.034 32.7109 199.409 33.4227C199.805 34.1135 200.325 34.6473 200.971 35.0242C201.616 35.401 202.345 35.5894 203.157 35.5894Z" fill="#1F1A17"/>
<path d="M218.77 39.3575V20.3599L219.926 21.5217H211.805V17.3768H230.764V21.5217H222.643L223.767 20.3599V39.3575H218.77Z" fill="#1F1A17"/>
<path d="M240.072 39.6087C238.157 39.6087 236.47 39.2319 235.013 38.4783C233.576 37.7246 232.462 36.6989 231.67 35.401C230.879 34.0821 230.484 32.5853 230.484 30.9106C230.484 29.215 230.869 27.7182 231.639 26.4203C232.431 25.1014 233.503 24.0757 234.856 23.343C236.21 22.5894 237.74 22.2126 239.448 22.2126C241.093 22.2126 242.571 22.5684 243.883 23.2802C245.216 23.971 246.267 24.9758 247.038 26.2947C247.808 27.5926 248.193 29.1522 248.193 30.9734C248.193 31.1618 248.183 31.3816 248.162 31.6328C248.141 31.8631 248.12 32.0829 248.1 32.2923H234.45V29.4348H245.538L243.664 30.2826C243.664 29.4034 243.487 28.6393 243.133 27.9903C242.779 27.3414 242.29 26.839 241.665 26.4831C241.041 26.1063 240.312 25.9179 239.479 25.9179C238.646 25.9179 237.907 26.1063 237.261 26.4831C236.637 26.839 236.147 27.3519 235.793 28.0217C235.439 28.6707 235.262 29.4452 235.262 30.3454V31.099C235.262 32.0201 235.46 32.8366 235.856 33.5483C236.272 34.2391 236.845 34.7729 237.574 35.1498C238.323 35.5056 239.198 35.6836 240.197 35.6836C241.093 35.6836 241.874 35.5475 242.54 35.2754C243.227 35.0032 243.852 34.595 244.414 34.0507L247.006 36.8768C246.236 37.756 245.268 38.4364 244.102 38.9179C242.936 39.3784 241.592 39.6087 240.072 39.6087Z" fill="#1F1A17"/>
<path d="M259.924 39.6087C258.113 39.6087 256.499 39.2424 255.083 38.5097C253.667 37.756 252.553 36.7198 251.741 35.401C250.95 34.0821 250.554 32.5853 250.554 30.9106C250.554 29.215 250.95 27.7182 251.741 26.4203C252.553 25.1014 253.667 24.0757 255.083 23.343C256.499 22.5894 258.113 22.2126 259.924 22.2126C261.694 22.2126 263.235 22.5894 264.547 23.343C265.859 24.0757 266.827 25.1328 267.451 26.5145L263.672 28.5556C263.235 27.7601 262.683 27.1739 262.017 26.7971C261.371 26.4203 260.663 26.2319 259.893 26.2319C259.06 26.2319 258.31 26.4203 257.644 26.7971C256.978 27.1739 256.447 27.7077 256.051 28.3986C255.676 29.0894 255.489 29.9267 255.489 30.9106C255.489 31.8945 255.676 32.7319 256.051 33.4227C256.447 34.1135 256.978 34.6473 257.644 35.0242C258.31 35.401 259.06 35.5894 259.893 35.5894C260.663 35.5894 261.371 35.4114 262.017 35.0556C262.683 34.6787 263.235 34.0821 263.672 33.2657L267.451 35.3382C266.827 36.6989 265.859 37.756 264.547 38.5097C263.235 39.2424 261.694 39.6087 259.924 39.6087Z" fill="#1F1A17"/>
<path d="M273.974 39.3575V25.3527L275.067 26.4831H268.289V22.4638H284.5V26.4831H277.722L278.815 25.3527V39.3575H273.974Z" fill="#1F1A17"/>
</svg>
