<svg width="24" height="25" viewBox="0 0 24 25" fill="none" xmlns="http://www.w3.org/2000/svg">
<path d="M14.2029 10.5759C13.966 10.3376 13.7033 10.1263 13.4198 9.94603C12.6686 9.46506 11.7954 9.20948 10.9035 9.20948C9.6656 9.20718 8.47796 9.69904 7.60413 10.5759L3.36489 14.8185C2.49255 15.6925 2.00225 16.8767 2.00147 18.1116C1.99983 20.6885 4.08742 22.7787 6.6643 22.7804C7.90033 22.7847 9.08687 22.2952 9.96039 21.4206L13.4598 17.9212C13.5233 17.8582 13.5588 17.7722 13.5583 17.6827C13.5573 17.4986 13.4072 17.3503 13.2231 17.3513H13.0898C12.3587 17.3539 11.6341 17.2135 10.9569 16.9381C10.8321 16.8867 10.6887 16.9157 10.5936 17.0114L8.0774 19.531C7.29606 20.3123 6.02926 20.3123 5.24791 19.531C4.46657 18.7496 4.46657 17.4828 5.24791 16.7015L9.50383 12.4489C10.2845 11.6692 11.5493 11.6692 12.33 12.4489C12.8562 12.9441 13.6769 12.9441 14.203 12.4489C14.4293 12.2223 14.5666 11.9218 14.5896 11.6024C14.6139 11.2206 14.4731 10.8467 14.2029 10.5759Z" fill="#DA251C"/>
<path d="M20.6313 4.14693C18.8091 2.32472 15.8547 2.32472 14.0325 4.14693L10.5365 7.63962C10.4405 7.73609 10.4128 7.88118 10.4665 8.00624C10.5196 8.13165 10.6436 8.21214 10.7798 8.20952H10.9031C11.6333 8.20819 12.3567 8.34969 13.0327 8.62613C13.1575 8.67748 13.3009 8.64851 13.3959 8.55282L15.9055 6.04659C16.6868 5.26525 17.9536 5.26525 18.735 6.04659C19.5163 6.82793 19.5163 8.09474 18.735 8.87608L15.6088 11.9988L15.5822 12.0288L14.489 13.1153C13.7083 13.8951 12.4436 13.8951 11.6629 13.1153C11.1367 12.6201 10.316 12.6201 9.7899 13.1153C9.56208 13.3436 9.42473 13.6467 9.40329 13.9685C9.37891 14.3503 9.51971 14.7241 9.7899 14.995C10.1756 15.3824 10.627 15.6983 11.123 15.9281C11.193 15.9614 11.263 15.9881 11.3329 16.0181C11.4029 16.0481 11.4762 16.0714 11.5462 16.0981C11.6162 16.1248 11.6895 16.1481 11.7595 16.1681L11.9561 16.2214C12.0894 16.2547 12.2228 16.2814 12.3594 16.3047C12.524 16.3292 12.6897 16.3447 12.856 16.3514H13.0893H13.1093L13.3092 16.3281C13.3825 16.3247 13.4592 16.3081 13.5459 16.3081H13.6592L13.8891 16.2747L13.9958 16.2548L14.1891 16.2148H14.2257C15.0444 16.0091 15.7919 15.5853 16.3887 14.9883L20.6312 10.7457C22.4536 8.92353 22.4536 5.96914 20.6313 4.14693Z" fill="#DA251C"/>
</svg>
