<svg width="280" height="69" viewBox="0 0 280 69" fill="none" xmlns="http://www.w3.org/2000/svg">
<path d="M0.287109 1.4375H16.4806V27.0498H0.287109V1.4375Z" fill="#DA251C"/>
<path d="M0.287109 27.0498H16.4806V38.1485H0.287109V27.0498Z" fill="white"/>
<path d="M40.0607 27.0498H56.2543V38.1485H40.0607V27.0498Z" fill="white"/>
<path d="M20.1739 27.0498H36.3675V50.3855H20.1739V27.0498Z" fill="white"/>
<path d="M20.1739 1.4375H36.3675V27.0498H20.1739V1.4375Z" fill="#DA251C"/>
<path d="M40.0607 1.4375H56.2543V27.0498H40.0607V1.4375Z" fill="#DA251C"/>
<mask id="path-2-inside-1_198_425" fill="white">
<path d="M56.2543 41.2788C56.2543 48.298 53.306 55.0298 48.0581 59.9931C42.8101 64.9565 35.6924 67.7449 28.2707 67.7449C20.849 67.7449 13.7312 64.9565 8.48331 59.9931C3.23537 55.0298 0.28711 48.298 0.287109 41.2788L7.00317 41.2788C7.00317 46.6134 9.24385 51.7296 13.2323 55.5017C17.2207 59.2738 22.6302 61.393 28.2707 61.393C33.9112 61.393 39.3207 59.2738 43.3091 55.5017C47.2975 51.7296 49.5382 46.6134 49.5382 41.2788L56.2543 41.2788Z"/>
</mask>
<path d="M56.2543 41.2788L104.254 41.2788V-6.72119H56.2543V41.2788ZM0.287109 41.2788L0.287103 -6.72119L-47.7129 -6.72118L-47.7129 41.2788L0.287109 41.2788ZM7.00317 41.2788L55.0032 41.2788L55.0032 -6.7212L7.00316 -6.72119L7.00317 41.2788ZM28.2707 61.393L28.2707 109.393L28.2707 61.393ZM49.5382 41.2788V-6.72119H1.5382V41.2788H49.5382ZM8.25426 41.2788C8.25426 34.6768 11.052 28.9251 15.0757 25.1196L81.0404 94.8667C95.56 81.1344 104.254 61.9193 104.254 41.2788L8.25426 41.2788ZM15.0757 25.1196C19.0086 21.4 23.7988 19.7449 28.2707 19.7449L28.2707 115.745C47.586 115.745 66.6117 108.513 81.0404 94.8667L15.0757 25.1196ZM28.2707 19.7449C32.7426 19.7449 37.5328 21.4 41.4657 25.1196L-24.4991 94.8667C-10.0703 108.513 8.95536 115.745 28.2707 115.745L28.2707 19.7449ZM41.4657 25.1196C45.4894 28.9251 48.2871 34.6767 48.2871 41.2788L-47.7129 41.2788C-47.7129 61.9193 -39.0187 81.1345 -24.4991 94.8667L41.4657 25.1196ZM0.287116 89.2788H7.00317L7.00316 -6.72119H0.287103L0.287116 89.2788ZM-40.9968 41.2788C-40.9968 60.2347 -33.0102 77.8342 -19.7501 90.3752L46.2146 20.6282C51.4979 25.6249 55.0032 32.9921 55.0032 41.2788L-40.9968 41.2788ZM-19.7501 90.3752C-6.58083 102.83 10.7366 109.393 28.2707 109.393L28.2707 13.393C34.5238 13.393 41.0223 15.7174 46.2146 20.6282L-19.7501 90.3752ZM28.2707 109.393C45.8048 109.393 63.1222 102.83 76.2915 90.3752L10.3267 20.6282C15.5191 15.7174 22.0176 13.393 28.2707 13.393L28.2707 109.393ZM76.2915 90.3752C89.5516 77.8342 97.5382 60.2347 97.5382 41.2788H1.5382C1.5382 32.9921 5.04348 25.6249 10.3267 20.6282L76.2915 90.3752ZM49.5382 89.2788H56.2543V-6.72119H49.5382V89.2788Z" fill="white" mask="url(#path-2-inside-1_198_425)"/>
<path d="M70.8916 51.7753V42.1153H77.9452V42.9847H71.8973V46.1449H75.0521C76.191 46.1449 77.0543 46.3795 77.6421 46.8487C78.2391 47.3087 78.5376 47.9895 78.5376 48.8911C78.5376 49.8203 78.2161 50.5333 77.5732 51.0301C76.9395 51.5269 76.0257 51.7753 74.8317 51.7753H70.8916ZM71.8973 50.9611H74.8179C75.7088 50.9611 76.3793 50.7909 76.8293 50.4505C77.2885 50.1009 77.5181 49.5949 77.5181 48.9325C77.5181 47.6169 76.618 46.9591 74.8179 46.9591H71.8973V50.9611Z" fill="white"/>
<path d="M87.707 51.7753V44.5303H88.6852V51.7753H87.707ZM83.6981 47.0833C84.6073 47.0925 85.3007 47.2949 85.7783 47.6905C86.2559 48.0861 86.4947 48.6565 86.4947 49.4017C86.4947 50.1745 86.2375 50.7679 85.7232 51.1819C85.2089 51.5959 84.4741 51.7983 83.519 51.7891L80.6535 51.7753V44.5303H81.6316V47.0557L83.6981 47.0833ZM83.4501 51.0439C84.1297 51.0531 84.6395 50.9197 84.9793 50.6437C85.3283 50.3585 85.5028 49.9445 85.5028 49.4017C85.5028 48.8589 85.3329 48.4633 84.9931 48.2149C84.6532 47.9573 84.1389 47.8239 83.4501 47.8147L81.6316 47.7871V51.0163L83.4501 51.0439Z" fill="white"/>
<path d="M94.501 51.8443C93.7846 51.8443 93.1417 51.6879 92.5723 51.3751C92.0121 51.0531 91.5712 50.6161 91.2498 50.0641C90.9283 49.5029 90.7676 48.8635 90.7676 48.1459C90.7676 47.4191 90.9283 46.7797 91.2498 46.2277C91.5712 45.6757 92.0121 45.2433 92.5723 44.9305C93.1417 44.6177 93.7846 44.4613 94.501 44.4613C95.1164 44.4613 95.672 44.5809 96.168 44.8201C96.6639 45.0593 97.0543 45.4181 97.339 45.8965L96.6088 46.3933C96.3609 46.0253 96.0532 45.7539 95.6858 45.5791C95.3184 45.4043 94.9189 45.3169 94.4872 45.3169C93.9729 45.3169 93.5091 45.4365 93.0958 45.6757C92.6825 45.9057 92.3565 46.2323 92.1177 46.6555C91.8789 47.0787 91.7595 47.5755 91.7595 48.1459C91.7595 48.7163 91.8789 49.2131 92.1177 49.6363C92.3565 50.0595 92.6825 50.3907 93.0958 50.6299C93.5091 50.8599 93.9729 50.9749 94.4872 50.9749C94.9189 50.9749 95.3184 50.8875 95.6858 50.7127C96.0532 50.5379 96.3609 50.2711 96.6088 49.9123L97.339 50.4091C97.0543 50.8783 96.6639 51.2371 96.168 51.4855C95.672 51.7247 95.1164 51.8443 94.501 51.8443Z" fill="white"/>
<path d="M100.476 51.7753V45.1237L100.724 45.3859H97.7345V44.5303H104.196V45.3859H101.206L101.454 45.1237V51.7753H100.476Z" fill="white"/>
<path d="M109.343 51.8443C108.719 51.8443 108.154 51.7017 107.649 51.4165C107.144 51.1221 106.74 50.7035 106.437 50.1607C106.143 49.6087 105.996 48.9371 105.996 48.1459C105.996 47.3547 106.143 46.6877 106.437 46.1449C106.73 45.5929 107.13 45.1743 107.635 44.8891C108.14 44.6039 108.71 44.4613 109.343 44.4613C110.032 44.4613 110.648 44.6177 111.189 44.9305C111.741 45.2341 112.172 45.6665 112.484 46.2277C112.797 46.7797 112.953 47.4191 112.953 48.1459C112.953 48.8819 112.797 49.5259 112.484 50.0779C112.172 50.6299 111.741 51.0623 111.189 51.3751C110.648 51.6879 110.032 51.8443 109.343 51.8443ZM105.61 54.4525V44.5303H106.547V46.7107L106.45 48.1597L106.588 49.6225V54.4525H105.61ZM109.275 50.9749C109.789 50.9749 110.248 50.8599 110.652 50.6299C111.056 50.3907 111.378 50.0595 111.617 49.6363C111.855 49.2039 111.975 48.7071 111.975 48.1459C111.975 47.5847 111.855 47.0925 111.617 46.6693C111.378 46.2461 111.056 45.9149 110.652 45.6757C110.248 45.4365 109.789 45.3169 109.275 45.3169C108.76 45.3169 108.296 45.4365 107.883 45.6757C107.479 45.9149 107.158 46.2461 106.919 46.6693C106.689 47.0925 106.574 47.5847 106.574 48.1459C106.574 48.7071 106.689 49.2039 106.919 49.6363C107.158 50.0595 107.479 50.3907 107.883 50.6299C108.296 50.8599 108.76 50.9749 109.275 50.9749Z" fill="white"/>
<path d="M122.108 51.7753V44.5303H123.086V51.7753H122.108ZM118.099 47.0833C119.008 47.0925 119.702 47.2949 120.179 47.6905C120.657 48.0861 120.896 48.6565 120.896 49.4017C120.896 50.1745 120.639 50.7679 120.124 51.1819C119.61 51.5959 118.875 51.7983 117.92 51.7891L115.054 51.7753V44.5303H116.033V47.0557L118.099 47.0833ZM117.851 51.0439C118.531 51.0531 119.04 50.9197 119.38 50.6437C119.729 50.3585 119.904 49.9445 119.904 49.4017C119.904 48.8589 119.734 48.4633 119.394 48.2149C119.054 47.9573 118.54 47.8239 117.851 47.8147L116.033 47.7871V51.0163L117.851 51.0439Z" fill="white"/>
<path d="M125.871 51.7753V44.5303H126.849V50.2849L131.685 44.5303H132.553V51.7753H131.575V46.0069L126.753 51.7753H125.871ZM129.15 43.4815C128.544 43.4815 128.052 43.3297 127.676 43.0261C127.308 42.7133 127.116 42.2671 127.097 41.6875H127.8C127.809 42.0555 127.938 42.3453 128.186 42.5569C128.434 42.7685 128.755 42.8743 129.15 42.8743C129.545 42.8743 129.866 42.7685 130.114 42.5569C130.371 42.3453 130.505 42.0555 130.514 41.6875H131.216C131.207 42.2671 131.014 42.7133 130.638 43.0261C130.261 43.3297 129.765 43.4815 129.15 43.4815Z" fill="white"/>
<path d="M137.777 51.7753L140.835 47.8009L140.821 48.2839L137.915 44.5303H139.017L141.4 47.6353L140.987 47.6215L143.37 44.5303H144.445L141.51 48.3253L141.524 47.8009L144.61 51.7753H143.494L140.973 48.4633L141.359 48.5185L138.879 51.7753H137.777Z" fill="white"/>
<path d="M146.213 51.7753V44.5303H147.191V50.2849L152.027 44.5303H152.895V51.7753H151.917V46.0069L147.095 51.7753H146.213Z" fill="white"/>
<path d="M155.698 51.7753V44.5303H156.69L159.969 50.0917H159.555L162.889 44.5303H163.798V51.7753H162.903V45.6481L163.082 45.7309L159.969 50.8921H159.528L156.387 45.6757L156.593 45.6343V51.7753H155.698Z" fill="white"/>
<path d="M166.582 51.7753V44.5303H167.56V50.2849L172.396 44.5303H173.263V51.7753H172.285V46.0069L167.464 51.7753H166.582Z" fill="white"/>
<path d="M180.64 48.7117C180.218 48.8957 179.791 49.0429 179.359 49.1533C178.937 49.2545 178.514 49.3051 178.092 49.3051C177.238 49.3051 176.563 49.1119 176.067 48.7255C175.571 48.3299 175.323 47.7227 175.323 46.9039V44.5303H176.287V46.8487C176.287 47.4007 176.466 47.8147 176.824 48.0907C177.183 48.3667 177.665 48.5047 178.271 48.5047C178.638 48.5047 179.024 48.4587 179.428 48.3667C179.832 48.2655 180.241 48.1229 180.654 47.9389L180.64 48.7117ZM180.558 51.7753V44.5303H181.536V51.7753H180.558Z" fill="white"/>
<path d="M187.413 51.8443C186.66 51.8443 185.999 51.6879 185.43 51.3751C184.86 51.0531 184.415 50.6161 184.093 50.0641C183.772 49.5029 183.611 48.8635 183.611 48.1459C183.611 47.4283 183.763 46.7935 184.066 46.2415C184.378 45.6895 184.801 45.2571 185.333 44.9443C185.875 44.6223 186.481 44.4613 187.152 44.4613C187.831 44.4613 188.433 44.6177 188.956 44.9305C189.489 45.2341 189.907 45.6665 190.21 46.2277C190.513 46.7797 190.665 47.4191 190.665 48.1459C190.665 48.1919 190.66 48.2425 190.651 48.2977C190.651 48.3437 190.651 48.3943 190.651 48.4495H184.355V47.7181H190.127L189.742 48.0079C189.742 47.4835 189.627 47.0189 189.397 46.6141C189.177 46.2001 188.874 45.8781 188.488 45.6481C188.102 45.4181 187.657 45.3031 187.152 45.3031C186.656 45.3031 186.21 45.4181 185.815 45.6481C185.42 45.8781 185.113 46.2001 184.892 46.6141C184.672 47.0281 184.562 47.5019 184.562 48.0355V48.1873C184.562 48.7393 184.681 49.2269 184.92 49.6501C185.168 50.0641 185.508 50.3907 185.939 50.6299C186.38 50.8599 186.881 50.9749 187.441 50.9749C187.882 50.9749 188.291 50.8967 188.667 50.7403C189.053 50.5839 189.384 50.3447 189.659 50.0227L190.21 50.6575C189.889 51.0439 189.485 51.3383 188.998 51.5407C188.52 51.7431 187.992 51.8443 187.413 51.8443Z" fill="white"/>
<path d="M195.861 51.8443C195.144 51.8443 194.501 51.6879 193.932 51.3751C193.372 51.0531 192.931 50.6161 192.609 50.0641C192.288 49.5029 192.127 48.8635 192.127 48.1459C192.127 47.4191 192.288 46.7797 192.609 46.2277C192.931 45.6757 193.372 45.2433 193.932 44.9305C194.501 44.6177 195.144 44.4613 195.861 44.4613C196.476 44.4613 197.032 44.5809 197.528 44.8201C198.024 45.0593 198.414 45.4181 198.699 45.8965L197.969 46.3933C197.721 46.0253 197.413 45.7539 197.046 45.5791C196.678 45.4043 196.279 45.3169 195.847 45.3169C195.333 45.3169 194.869 45.4365 194.456 45.6757C194.042 45.9057 193.716 46.2323 193.477 46.6555C193.239 47.0787 193.119 47.5755 193.119 48.1459C193.119 48.7163 193.239 49.2131 193.477 49.6363C193.716 50.0595 194.042 50.3907 194.456 50.6299C194.869 50.8599 195.333 50.9749 195.847 50.9749C196.279 50.9749 196.678 50.8875 197.046 50.7127C197.413 50.5379 197.721 50.2711 197.969 49.9123L198.699 50.4091C198.414 50.8783 198.024 51.2371 197.528 51.4855C197.032 51.7247 196.476 51.8443 195.861 51.8443Z" fill="white"/>
<path d="M205.897 51.7753L202.921 48.1873L203.734 47.7043L207.054 51.7753H205.897ZM200.593 51.7753V44.5303H201.571V51.7753H200.593ZM201.268 48.5461V47.7043H203.596V48.5461H201.268ZM203.816 48.2563L202.907 48.1183L205.786 44.5303H206.847L203.816 48.2563Z" fill="white"/>
<path d="M208.598 51.7753V44.5303H209.576V50.2849L214.411 44.5303H215.279V51.7753H214.301V46.0069L209.479 51.7753H208.598Z" fill="white"/>
<path d="M218.082 51.7753V44.5303H219.061V50.2849L223.896 44.5303H224.764V51.7753H223.786V46.0069L218.964 51.7753H218.082ZM221.361 43.4815C220.755 43.4815 220.264 43.3297 219.887 43.0261C219.52 42.7133 219.327 42.2671 219.309 41.6875H220.011C220.02 42.0555 220.149 42.3453 220.397 42.5569C220.645 42.7685 220.966 42.8743 221.361 42.8743C221.756 42.8743 222.078 42.7685 222.326 42.5569C222.583 42.3453 222.716 42.0555 222.725 41.6875H223.428C223.419 42.2671 223.226 42.7133 222.849 43.0261C222.473 43.3297 221.977 43.4815 221.361 43.4815Z" fill="white"/>
<path d="M235.664 51.7753V50.1745L235.623 49.9123V47.2351C235.623 46.6187 235.448 46.1449 235.099 45.8137C234.759 45.4825 234.25 45.3169 233.57 45.3169C233.102 45.3169 232.656 45.3951 232.234 45.5515C231.811 45.7079 231.453 45.9149 231.159 46.1725L230.718 45.4411C231.086 45.1283 231.526 44.8891 232.041 44.7235C232.555 44.5487 233.097 44.4613 233.666 44.4613C234.603 44.4613 235.324 44.6959 235.829 45.1651C236.344 45.6251 236.601 46.3289 236.601 47.2765V51.7753H235.664ZM233.17 51.8443C232.629 51.8443 232.156 51.7569 231.751 51.5821C231.356 51.3981 231.053 51.1497 230.842 50.8369C230.631 50.5149 230.525 50.1469 230.525 49.7329C230.525 49.3557 230.613 49.0153 230.787 48.7117C230.971 48.3989 231.265 48.1505 231.669 47.9665C232.082 47.7733 232.633 47.6767 233.322 47.6767H235.815V48.4081H233.35C232.651 48.4081 232.165 48.5323 231.889 48.7807C231.623 49.0291 231.49 49.3373 231.49 49.7053C231.49 50.1193 231.65 50.4505 231.972 50.6989C232.293 50.9473 232.743 51.0715 233.322 51.0715C233.873 51.0715 234.346 50.9473 234.741 50.6989C235.145 50.4413 235.439 50.0733 235.623 49.5949L235.843 50.2711C235.659 50.7495 235.338 51.1313 234.879 51.4165C234.429 51.7017 233.859 51.8443 233.17 51.8443Z" fill="white"/>
<path d="M239.205 51.7753V44.5303H240.183V47.7319H244.743V44.5303H245.721V51.7753H244.743V48.5737H240.183V51.7753H239.205Z" fill="white"/>
<path d="M252.992 51.7753V50.1745L252.951 49.9123V47.2351C252.951 46.6187 252.776 46.1449 252.427 45.8137C252.088 45.4825 251.578 45.3169 250.898 45.3169C250.43 45.3169 249.984 45.3951 249.562 45.5515C249.139 45.7079 248.781 45.9149 248.487 46.1725L248.046 45.4411C248.414 45.1283 248.855 44.8891 249.369 44.7235C249.883 44.5487 250.425 44.4613 250.995 44.4613C251.931 44.4613 252.652 44.6959 253.158 45.1651C253.672 45.6251 253.929 46.3289 253.929 47.2765V51.7753H252.992ZM250.499 51.8443C249.957 51.8443 249.484 51.7569 249.08 51.5821C248.685 51.3981 248.382 51.1497 248.17 50.8369C247.959 50.5149 247.854 50.1469 247.854 49.7329C247.854 49.3557 247.941 49.0153 248.115 48.7117C248.299 48.3989 248.593 48.1505 248.997 47.9665C249.41 47.7733 249.961 47.6767 250.65 47.6767H253.144V48.4081H250.678C249.98 48.4081 249.493 48.5323 249.217 48.7807C248.951 49.0291 248.818 49.3373 248.818 49.7053C248.818 50.1193 248.979 50.4505 249.3 50.6989C249.622 50.9473 250.072 51.0715 250.65 51.0715C251.201 51.0715 251.674 50.9473 252.069 50.6989C252.473 50.4413 252.767 50.0733 252.951 49.5949L253.171 50.2711C252.988 50.7495 252.666 51.1313 252.207 51.4165C251.757 51.7017 251.188 51.8443 250.499 51.8443Z" fill="white"/>
<path d="M255.21 51.7615L255.279 50.9197C255.344 50.9289 255.403 50.9427 255.458 50.9611C255.523 50.9703 255.578 50.9749 255.624 50.9749C255.918 50.9749 256.152 50.8645 256.326 50.6437C256.51 50.4229 256.648 50.1285 256.74 49.7605C256.831 49.3925 256.896 48.9785 256.932 48.5185C256.969 48.0493 257.001 47.5801 257.029 47.1109L257.153 44.5303H262.457V51.7753H261.479V45.0961L261.727 45.3859H257.787L258.021 45.0823L257.911 47.1799C257.883 47.8055 257.833 48.4035 257.759 48.9739C257.695 49.5443 257.589 50.0457 257.442 50.4781C257.304 50.9105 257.112 51.2509 256.864 51.4993C256.616 51.7385 256.299 51.8581 255.913 51.8581C255.803 51.8581 255.688 51.8489 255.569 51.8305C255.458 51.8121 255.339 51.7891 255.21 51.7615Z" fill="white"/>
<path d="M265.237 51.7753V44.5303H266.216V50.2849L271.051 44.5303H271.919V51.7753H270.941V46.0069L266.119 51.7753H265.237Z" fill="white"/>
<path d="M276.517 51.8581C275.993 51.8581 275.474 51.7845 274.96 51.6373C274.446 51.4901 273.991 51.2647 273.596 50.9611L273.913 50.2297C274.262 50.4873 274.666 50.6851 275.125 50.8231C275.585 50.9519 276.039 51.0163 276.489 51.0163C276.939 51.0071 277.33 50.9427 277.66 50.8231C277.991 50.7035 278.248 50.5379 278.432 50.3263C278.615 50.1147 278.707 49.8755 278.707 49.6087C278.707 49.2223 278.533 48.9233 278.184 48.7117C277.835 48.4909 277.357 48.3805 276.751 48.3805H275.511V47.6629H276.682C277.04 47.6629 277.357 47.6169 277.633 47.5249C277.908 47.4329 278.119 47.2995 278.266 47.1247C278.422 46.9499 278.501 46.7429 278.501 46.5037C278.501 46.2461 278.409 46.0253 278.225 45.8413C278.051 45.6573 277.807 45.5193 277.495 45.4273C277.183 45.3353 276.829 45.2893 276.434 45.2893C276.076 45.2985 275.704 45.3537 275.318 45.4549C274.932 45.5469 274.551 45.6895 274.175 45.8827L273.899 45.1237C274.322 44.9029 274.74 44.7373 275.153 44.6269C275.575 44.5073 275.998 44.4475 276.42 44.4475C276.999 44.4291 277.518 44.4981 277.977 44.6545C278.445 44.8109 278.817 45.0363 279.093 45.3307C279.368 45.6159 279.506 45.9609 279.506 46.3657C279.506 46.7245 279.396 47.0373 279.176 47.3041C278.955 47.5709 278.661 47.7779 278.294 47.9251C277.927 48.0723 277.509 48.1459 277.04 48.1459L277.082 47.8837C277.908 47.8837 278.551 48.0447 279.01 48.3667C279.479 48.6887 279.713 49.1257 279.713 49.6777C279.713 50.1101 279.571 50.4919 279.286 50.8231C279.001 51.1451 278.615 51.3981 278.129 51.5821C277.651 51.7661 277.114 51.8581 276.517 51.8581Z" fill="white"/>
<path d="M70.8916 33.9459V14.9876H74.4974L82.5164 28.3668H80.6059L88.4903 14.9876H92.0961L92.123 33.9459H88.0328L88.0059 21.298H88.7863L82.4626 31.9418H80.5251L74.0669 21.298H74.9818V33.9459H70.8916Z" fill="white"/>
<path d="M103.557 34.1626C101.906 34.1626 100.453 33.8376 99.1972 33.1876C97.9594 32.5376 96.9997 31.6529 96.318 30.5334C95.6362 29.3959 95.2954 28.105 95.2954 26.6605C95.2954 25.198 95.6273 23.907 96.291 22.7876C96.9727 21.6501 97.8966 20.7654 99.0627 20.1334C100.229 19.4834 101.547 19.1584 103.018 19.1584C104.436 19.1584 105.709 19.4654 106.839 20.0793C107.988 20.6751 108.894 21.5418 109.557 22.6793C110.221 23.7987 110.553 25.1438 110.553 26.7147C110.553 26.8772 110.544 27.0668 110.526 27.2834C110.508 27.482 110.49 27.6716 110.472 27.8522H98.7129V25.3876H108.266L106.651 26.1188C106.651 25.3605 106.499 24.7015 106.194 24.1418C105.889 23.582 105.467 23.1487 104.929 22.8418C104.391 22.5168 103.763 22.3543 103.045 22.3543C102.328 22.3543 101.691 22.5168 101.135 22.8418C100.597 23.1487 100.175 23.5911 99.87 24.1688C99.565 24.7286 99.4125 25.3966 99.4125 26.173V26.823C99.4125 27.6175 99.5829 28.3216 99.9238 28.9355C100.283 29.5313 100.776 29.9918 101.404 30.3168C102.05 30.6237 102.803 30.7772 103.664 30.7772C104.436 30.7772 105.108 30.6598 105.682 30.4251C106.274 30.1904 106.813 29.8383 107.297 29.3688L109.53 31.8063C108.867 32.5647 108.032 33.1515 107.028 33.5668C106.023 33.964 104.866 34.1626 103.557 34.1626Z" fill="white"/>
<path d="M123.596 32.0501V22.8418H118.86L118.779 24.7105C118.743 25.4869 118.698 26.2272 118.644 26.9313C118.591 27.6355 118.483 28.2765 118.322 28.8543C118.178 29.414 117.963 29.8925 117.676 30.2897C117.389 30.6688 117.003 30.9307 116.519 31.0751L112.375 30.4793C112.895 30.4793 113.316 30.3258 113.639 30.0188C113.962 29.6938 114.213 29.2515 114.393 28.6918C114.572 28.114 114.707 27.464 114.796 26.7418C114.886 26.0015 114.949 25.2251 114.985 24.4126L115.173 19.3751H127.794V32.0501H123.596ZM111.89 37.0876V30.4793H129.866V37.0876H125.964V33.9459H115.792V37.0876H111.89Z" fill="white"/>
<path d="M136.093 26.0376V22.6793H145.404V26.0376H136.093ZM138.569 14.6626C139.986 14.6626 141.287 14.9063 142.471 15.3938C143.655 15.8633 144.686 16.5404 145.565 17.4251C146.444 18.3098 147.126 19.348 147.61 20.5397C148.095 21.7313 148.337 23.0404 148.337 24.4668C148.337 25.8932 148.095 27.2022 147.61 28.3938C147.126 29.5855 146.444 30.6237 145.565 31.5084C144.686 32.3932 143.655 33.0793 142.471 33.5668C141.287 34.0362 139.986 34.2709 138.569 34.2709C136.901 34.2709 135.394 33.982 134.048 33.4043C132.721 32.8265 131.608 31.9869 130.711 30.8855L133.483 28.2855C134.147 29.0438 134.882 29.6126 135.69 29.9918C136.497 30.3529 137.385 30.5334 138.354 30.5334C139.161 30.5334 139.905 30.389 140.587 30.1001C141.287 29.7932 141.879 29.3779 142.363 28.8543C142.865 28.3126 143.242 27.6716 143.493 26.9313C143.762 26.1911 143.897 25.3695 143.897 24.4668C143.897 23.564 143.762 22.7425 143.493 22.0022C143.242 21.2619 142.865 20.63 142.363 20.1063C141.879 19.5647 141.287 19.1494 140.587 18.8605C139.905 18.5536 139.161 18.4001 138.354 18.4001C137.385 18.4001 136.497 18.5897 135.69 18.9688C134.882 19.33 134.147 19.8897 133.483 20.648L130.711 18.048C131.608 16.9466 132.721 16.107 134.048 15.5293C135.394 14.9515 136.901 14.6626 138.569 14.6626Z" fill="white"/>
<path d="M161.68 33.9459L156.837 27.0397L160.254 25.0084L166.632 33.9459H161.68ZM151.428 33.9459V19.3751H155.626V33.9459H151.428ZM154.388 28.4209V25.0355H159.447V28.4209H154.388ZM160.658 27.148L156.729 26.7147L161.815 19.3751H166.282L160.658 27.148Z" fill="white"/>
<path d="M175.027 34.1626C173.485 34.1626 172.112 33.8376 170.91 33.1876C169.726 32.5376 168.785 31.6529 168.085 30.5334C167.403 29.3959 167.062 28.105 167.062 26.6605C167.062 25.198 167.403 23.907 168.085 22.7876C168.785 21.6501 169.726 20.7654 170.91 20.1334C172.112 19.4834 173.485 19.1584 175.027 19.1584C176.552 19.1584 177.916 19.4834 179.118 20.1334C180.32 20.7654 181.261 21.6411 181.943 22.7605C182.625 23.88 182.966 25.18 182.966 26.6605C182.966 28.105 182.625 29.3959 181.943 30.5334C181.261 31.6529 180.32 32.5376 179.118 33.1876C177.916 33.8376 176.552 34.1626 175.027 34.1626ZM175.027 30.6959C175.727 30.6959 176.355 30.5334 176.911 30.2084C177.467 29.8834 177.907 29.423 178.23 28.8272C178.553 28.2133 178.714 27.4911 178.714 26.6605C178.714 25.8119 178.553 25.0897 178.23 24.4938C177.907 23.898 177.467 23.4376 176.911 23.1126C176.355 22.7876 175.727 22.6251 175.027 22.6251C174.328 22.6251 173.7 22.7876 173.144 23.1126C172.588 23.4376 172.139 23.898 171.798 24.4938C171.475 25.0897 171.314 25.8119 171.314 26.6605C171.314 27.4911 171.475 28.2133 171.798 28.8272C172.139 29.423 172.588 29.8834 173.144 30.2084C173.7 30.5334 174.328 30.6959 175.027 30.6959Z" fill="white"/>
<path d="M188.479 33.9459V17.5605L189.474 18.5626H182.478V14.9876H198.812V18.5626H191.815L192.784 17.5605V33.9459H188.479Z" fill="white"/>
<path d="M206.832 34.1626C205.181 34.1626 203.728 33.8376 202.472 33.1876C201.234 32.5376 200.275 31.6529 199.593 30.5334C198.911 29.3959 198.57 28.105 198.57 26.6605C198.57 25.198 198.902 23.907 199.566 22.7876C200.248 21.6501 201.172 20.7654 202.338 20.1334C203.504 19.4834 204.822 19.1584 206.293 19.1584C207.711 19.1584 208.984 19.4654 210.114 20.0793C211.263 20.6751 212.169 21.5418 212.832 22.6793C213.496 23.7987 213.828 25.1438 213.828 26.7147C213.828 26.8772 213.819 27.0668 213.801 27.2834C213.783 27.482 213.765 27.6716 213.747 27.8522H201.988V25.3876H211.541L209.926 26.1188C209.926 25.3605 209.774 24.7015 209.469 24.1418C209.164 23.582 208.742 23.1487 208.204 22.8418C207.666 22.5168 207.038 22.3543 206.32 22.3543C205.603 22.3543 204.966 22.5168 204.41 22.8418C203.872 23.1487 203.45 23.5911 203.145 24.1688C202.84 24.7286 202.688 25.3966 202.688 26.173V26.823C202.688 27.6175 202.858 28.3216 203.199 28.9355C203.558 29.5313 204.051 29.9918 204.679 30.3168C205.325 30.6237 206.078 30.7772 206.939 30.7772C207.711 30.7772 208.383 30.6598 208.957 30.4251C209.549 30.1904 210.088 29.8383 210.572 29.3688L212.805 31.8063C212.142 32.5647 211.307 33.1515 210.303 33.5668C209.298 33.964 208.141 34.1626 206.832 34.1626Z" fill="white"/>
<path d="M223.935 34.1626C222.374 34.1626 220.983 33.8466 219.764 33.2147C218.544 32.5647 217.584 31.6709 216.884 30.5334C216.203 29.3959 215.862 28.105 215.862 26.6605C215.862 25.198 216.203 23.907 216.884 22.7876C217.584 21.6501 218.544 20.7654 219.764 20.1334C220.983 19.4834 222.374 19.1584 223.935 19.1584C225.459 19.1584 226.787 19.4834 227.917 20.1334C229.047 20.7654 229.881 21.6772 230.42 22.8688L227.164 24.6293C226.787 23.9432 226.311 23.4376 225.737 23.1126C225.181 22.7876 224.571 22.6251 223.908 22.6251C223.19 22.6251 222.544 22.7876 221.97 23.1126C221.396 23.4376 220.939 23.898 220.598 24.4938C220.275 25.0897 220.113 25.8119 220.113 26.6605C220.113 27.5091 220.275 28.2313 220.598 28.8272C220.939 29.423 221.396 29.8834 221.97 30.2084C222.544 30.5334 223.19 30.6959 223.908 30.6959C224.571 30.6959 225.181 30.5425 225.737 30.2355C226.311 29.9105 226.787 29.3959 227.164 28.6918L230.42 30.4793C229.881 31.6529 229.047 32.5647 227.917 33.2147C226.787 33.8466 225.459 34.1626 223.935 34.1626Z" fill="white"/>
<path d="M236.039 33.9459V21.8668L236.981 22.8418H231.141V19.3751H245.107V22.8418H239.268L240.21 21.8668V33.9459H236.039Z" fill="white"/>
</svg>
