<svg width="60" height="80" viewBox="0 0 60 80" fill="none" xmlns="http://www.w3.org/2000/svg">
<path d="M0.450012 6.47273V0.109091H1.65601L4.33801 4.6H3.69901L6.33601 0.109091H7.54201L7.55101 6.47273H6.18301L6.17401 2.22727H6.43501L4.32001 5.8H3.67201L1.51201 2.22727H1.81801V6.47273H0.450012Z" fill="#1F1A17"/>
<path d="M11.375 6.54545C10.823 6.54545 10.337 6.43636 9.91703 6.21818C9.50303 6 9.18203 5.70303 8.95403 5.32727C8.72603 4.94545 8.61203 4.51212 8.61203 4.02727C8.61203 3.53636 8.72303 3.10303 8.94503 2.72727C9.17303 2.34545 9.48203 2.04848 9.87203 1.83636C10.262 1.61818 10.703 1.50909 11.195 1.50909C11.669 1.50909 12.095 1.61212 12.473 1.81818C12.857 2.01818 13.16 2.30909 13.382 2.69091C13.604 3.06667 13.715 3.51818 13.715 4.04545C13.715 4.1 13.712 4.16364 13.706 4.23636C13.7 4.30303 13.694 4.36667 13.688 4.42727H9.75503V3.6H12.95L12.41 3.84545C12.41 3.59091 12.359 3.3697 12.257 3.18182C12.155 2.99394 12.014 2.84848 11.834 2.74545C11.654 2.63636 11.444 2.58182 11.204 2.58182C10.964 2.58182 10.751 2.63636 10.565 2.74545C10.385 2.84848 10.244 2.99697 10.142 3.19091C10.04 3.37879 9.98903 3.60303 9.98903 3.86364V4.08182C9.98903 4.34849 10.046 4.58485 10.16 4.79091C10.28 4.99091 10.445 5.14545 10.655 5.25455C10.871 5.35758 11.123 5.40909 11.411 5.40909C11.669 5.40909 11.894 5.3697 12.086 5.29091C12.284 5.21212 12.464 5.09394 12.626 4.93636L13.373 5.75455C13.151 6.00909 12.872 6.20606 12.536 6.34545C12.2 6.47879 11.813 6.54545 11.375 6.54545Z" fill="#1F1A17"/>
<path d="M18.0773 5.83636V2.74545H16.4933L16.4663 3.37273C16.4543 3.63333 16.4393 3.88182 16.4213 4.11818C16.4033 4.35455 16.3673 4.5697 16.3133 4.76364C16.2653 4.95152 16.1933 5.11212 16.0973 5.24545C16.0013 5.37273 15.8723 5.46061 15.7103 5.50909L14.3243 5.30909C14.4983 5.30909 14.6393 5.25758 14.7473 5.15455C14.8553 5.04545 14.9393 4.89697 14.9993 4.70909C15.0593 4.51515 15.1043 4.29697 15.1343 4.05455C15.1643 3.80606 15.1853 3.54545 15.1973 3.27273L15.2603 1.58182H19.4813V5.83636H18.0773ZM14.1623 7.52727V5.30909H20.1743V7.52727H18.8693V6.47273H15.4673V7.52727H14.1623Z" fill="#1F1A17"/>
<path d="M22.2572 3.81818V2.69091H25.3712V3.81818H22.2572ZM23.0852 0C23.5592 0 23.9942 0.081818 24.3902 0.245454C24.7862 0.40303 25.1312 0.630303 25.4252 0.927273C25.7192 1.22424 25.9472 1.57273 26.1092 1.97273C26.2712 2.37273 26.3522 2.81212 26.3522 3.29091C26.3522 3.7697 26.2712 4.20909 26.1092 4.60909C25.9472 5.00909 25.7192 5.35758 25.4252 5.65455C25.1312 5.95152 24.7862 6.18182 24.3902 6.34545C23.9942 6.50303 23.5592 6.58182 23.0852 6.58182C22.5272 6.58182 22.0232 6.48485 21.5732 6.29091C21.1292 6.09697 20.7572 5.81515 20.4572 5.44545L21.3842 4.57273C21.6062 4.82727 21.8522 5.01818 22.1222 5.14545C22.3922 5.26667 22.6892 5.32727 23.0132 5.32727C23.2832 5.32727 23.5322 5.27879 23.7602 5.18182C23.9942 5.07879 24.1922 4.93939 24.3542 4.76364C24.5222 4.58182 24.6482 4.36667 24.7322 4.11818C24.8222 3.8697 24.8672 3.59394 24.8672 3.29091C24.8672 2.98788 24.8222 2.71212 24.7322 2.46364C24.6482 2.21515 24.5222 2.00303 24.3542 1.82727C24.1922 1.64545 23.9942 1.50606 23.7602 1.40909C23.5322 1.30606 23.2832 1.25455 23.0132 1.25455C22.6892 1.25455 22.3922 1.31818 22.1222 1.44545C21.8522 1.56667 21.6062 1.75455 21.3842 2.00909L20.4572 1.13636C20.7572 0.766667 21.1292 0.484849 21.5732 0.290909C22.0232 0.0969697 22.5272 0 23.0852 0Z" fill="#1F1A17"/>
<path d="M30.815 6.47273L29.195 4.15455L30.338 3.47273L32.471 6.47273H30.815ZM27.386 6.47273V1.58182H28.79V6.47273H27.386ZM28.376 4.61818V3.48182H30.068V4.61818H28.376ZM30.473 4.19091L29.159 4.04545L30.86 1.58182H32.354L30.473 4.19091Z" fill="#1F1A17"/>
<path d="M35.279 6.54545C34.763 6.54545 34.304 6.43636 33.902 6.21818C33.506 6 33.191 5.70303 32.957 5.32727C32.729 4.94545 32.615 4.51212 32.615 4.02727C32.615 3.53636 32.729 3.10303 32.957 2.72727C33.191 2.34545 33.506 2.04848 33.902 1.83636C34.304 1.61818 34.763 1.50909 35.279 1.50909C35.789 1.50909 36.245 1.61818 36.647 1.83636C37.049 2.04848 37.364 2.34242 37.592 2.71818C37.82 3.09394 37.934 3.5303 37.934 4.02727C37.934 4.51212 37.82 4.94545 37.592 5.32727C37.364 5.70303 37.049 6 36.647 6.21818C36.245 6.43636 35.789 6.54545 35.279 6.54545ZM35.279 5.38182C35.513 5.38182 35.723 5.32727 35.909 5.21818C36.095 5.10909 36.242 4.95455 36.35 4.75455C36.458 4.54849 36.512 4.30606 36.512 4.02727C36.512 3.74242 36.458 3.5 36.35 3.3C36.242 3.1 36.095 2.94545 35.909 2.83636C35.723 2.72727 35.513 2.67273 35.279 2.67273C35.045 2.67273 34.835 2.72727 34.649 2.83636C34.463 2.94545 34.313 3.1 34.199 3.3C34.091 3.5 34.037 3.74242 34.037 4.02727C34.037 4.30606 34.091 4.54849 34.199 4.75455C34.313 4.95455 34.463 5.10909 34.649 5.21818C34.835 5.32727 35.045 5.38182 35.279 5.38182Z" fill="#1F1A17"/>
<path d="M39.7778 6.47273V0.972727L40.1108 1.30909H37.7708V0.109091H43.2338V1.30909H40.8938L41.2178 0.972727V6.47273H39.7778Z" fill="#1F1A17"/>
<path d="M45.916 6.54545C45.364 6.54545 44.878 6.43636 44.458 6.21818C44.044 6 43.723 5.70303 43.495 5.32727C43.267 4.94545 43.153 4.51212 43.153 4.02727C43.153 3.53636 43.264 3.10303 43.486 2.72727C43.714 2.34545 44.023 2.04848 44.413 1.83636C44.803 1.61818 45.244 1.50909 45.736 1.50909C46.21 1.50909 46.636 1.61212 47.014 1.81818C47.398 2.01818 47.701 2.30909 47.923 2.69091C48.145 3.06667 48.256 3.51818 48.256 4.04545C48.256 4.1 48.253 4.16364 48.247 4.23636C48.241 4.30303 48.235 4.36667 48.229 4.42727H44.296V3.6H47.491L46.951 3.84545C46.951 3.59091 46.9 3.3697 46.798 3.18182C46.696 2.99394 46.555 2.84848 46.375 2.74545C46.195 2.63636 45.985 2.58182 45.745 2.58182C45.505 2.58182 45.292 2.63636 45.106 2.74545C44.926 2.84848 44.785 2.99697 44.683 3.19091C44.581 3.37879 44.53 3.60303 44.53 3.86364V4.08182C44.53 4.34849 44.587 4.58485 44.701 4.79091C44.821 4.99091 44.986 5.14545 45.196 5.25455C45.412 5.35758 45.664 5.40909 45.952 5.40909C46.21 5.40909 46.435 5.3697 46.627 5.29091C46.825 5.21212 47.005 5.09394 47.167 4.93636L47.914 5.75455C47.692 6.00909 47.413 6.20606 47.077 6.34545C46.741 6.47879 46.354 6.54545 45.916 6.54545Z" fill="#1F1A17"/>
<path d="M51.6363 6.54545C51.1143 6.54545 50.6492 6.43939 50.2412 6.22727C49.8332 6.00909 49.5123 5.70909 49.2783 5.32727C49.0503 4.94545 48.9363 4.51212 48.9363 4.02727C48.9363 3.53636 49.0503 3.10303 49.2783 2.72727C49.5123 2.34545 49.8332 2.04848 50.2412 1.83636C50.6492 1.61818 51.1143 1.50909 51.6363 1.50909C52.1463 1.50909 52.5902 1.61818 52.9682 1.83636C53.3462 2.04848 53.6252 2.35455 53.8052 2.75455L52.7162 3.34545C52.5902 3.11515 52.4312 2.94545 52.2392 2.83636C52.0532 2.72727 51.8492 2.67273 51.6272 2.67273C51.3872 2.67273 51.1713 2.72727 50.9793 2.83636C50.7873 2.94545 50.6343 3.1 50.5203 3.3C50.4123 3.5 50.3582 3.74242 50.3582 4.02727C50.3582 4.31212 50.4123 4.55455 50.5203 4.75455C50.6343 4.95455 50.7873 5.10909 50.9793 5.21818C51.1713 5.32727 51.3872 5.38182 51.6272 5.38182C51.8492 5.38182 52.0532 5.3303 52.2392 5.22727C52.4312 5.11818 52.5902 4.94545 52.7162 4.70909L53.8052 5.30909C53.6252 5.70303 53.3462 6.00909 52.9682 6.22727C52.5902 6.43939 52.1463 6.54545 51.6363 6.54545Z" fill="#1F1A17"/>
<path d="M55.6846 6.47273V2.41818L55.9996 2.74545H54.0466V1.58182H58.7176V2.74545H56.7646L57.0796 2.41818V6.47273H55.6846Z" fill="#1F1A17"/>
<path d="M0 8.63635H17.1V35.9091H0V8.63635Z" fill="#DA251C"/>
<path d="M0 35.9091H17.1V47.7273H0V35.9091Z" fill="#1F1A17"/>
<path d="M42 35.9091H59.1V47.7273H42V35.9091Z" fill="#1F1A17"/>
<path d="M21 35.9091H38.1V60.7576H21V35.9091Z" fill="#1F1A17"/>
<path d="M21 8.63635H38.1V35.9091H21V8.63635Z" fill="#DA251C"/>
<path d="M42 8.63635H59.1V35.9091H42V8.63635Z" fill="#DA251C"/>
<mask id="path-3-inside-1_63_3074" fill="white">
<path d="M59.1 51.0606C59.1 58.5349 55.9867 65.703 50.445 70.9882C44.9033 76.2733 37.3871 79.2424 29.55 79.2424C21.7129 79.2424 14.1967 76.2733 8.655 70.9882C3.1133 65.703 1.18338e-06 58.5349 0 51.0606L7.092 51.0606C7.092 56.7411 9.4581 62.1889 13.6698 66.2056C17.8815 70.2222 23.5938 72.4788 29.55 72.4788C35.5062 72.4788 41.2185 70.2222 45.4302 66.2055C49.6419 62.1889 52.008 56.7411 52.008 51.0606L59.1 51.0606Z"/>
</mask>
<path d="M59.1 51.0606L107.1 51.0606L107.1 3.06061L59.1 3.06061L59.1 51.0606ZM0 51.0606L-6.91222e-06 3.06061L-48 3.06062L-48 51.0606L0 51.0606ZM7.092 51.0606L55.092 51.0606L55.092 3.0606L7.09199 3.06061L7.092 51.0606ZM29.55 72.4788L29.55 120.479L29.55 72.4788ZM52.008 51.0606L52.008 3.06061L4.008 3.06061V51.0606H52.008ZM11.1 51.0606C11.1 45.0505 13.6245 39.7745 17.3175 36.2524L83.5725 105.724C98.3489 91.6316 107.1 72.0193 107.1 51.0606L11.1 51.0606ZM17.3175 36.2524C20.9333 32.8041 25.3716 31.2424 29.55 31.2424L29.55 127.242C49.4027 127.242 68.8734 119.742 83.5725 105.724L17.3175 36.2524ZM29.55 31.2424C33.7284 31.2424 38.1667 32.8041 41.7824 36.2524L-24.4725 105.724C-9.77335 119.742 9.69734 127.242 29.55 127.242L29.55 31.2424ZM41.7824 36.2524C45.4755 39.7745 48 45.0505 48 51.0606L-48 51.0606C-48 72.0193 -39.2489 91.6316 -24.4725 105.724L41.7824 36.2524ZM6.91222e-06 99.0606L7.09201 99.0606L7.09199 3.06061L-6.91222e-06 3.06061L6.91222e-06 99.0606ZM-40.908 51.0606C-40.908 70.2255 -32.9041 88.1174 -19.4577 100.941L46.7972 31.4698C51.8203 36.2603 55.092 43.2567 55.092 51.0606L-40.908 51.0606ZM-19.4577 100.941C-6.08856 113.691 11.5783 120.479 29.55 120.479L29.55 24.4788C35.6093 24.4788 41.8515 26.7531 46.7972 31.4698L-19.4577 100.941ZM29.55 120.479C47.5217 120.479 65.1886 113.691 78.5577 100.941L12.3027 31.4698C17.2485 26.7531 23.4907 24.4788 29.55 24.4788L29.55 120.479ZM78.5577 100.941C92.0041 88.1174 100.008 70.2255 100.008 51.0606H4.008C4.008 43.2567 7.27968 36.2603 12.3027 31.4698L78.5577 100.941ZM52.008 99.0606H59.1L59.1 3.06061L52.008 3.06061L52.008 99.0606Z" fill="#1F1A17" mask="url(#path-3-inside-1_63_3074)"/>
</svg>
